<svg version="1.2" xmlns="http://www.w3.org/2000/svg" viewBox="0 0 471 446" width="471" height="446"><style>.a{fill:#a3dce5;stroke:#78acb5;stroke-miterlimit:10;stroke-width:9}.b{fill:#a3dce5;stroke:#78b5b4;stroke-miterlimit:10;stroke-width:8}.c{fill:#a3dce5}.d{fill:#1a1a1a}</style><path class="a" d="m399.4 193.4c-0.4-103.7-75.5-187.5-167.6-187.1-86.5 0.3-157.3 74.5-165.4 169.2-7.3 1.6-16.5 4.7-26.3 10.6-11 6.7-28.5 17.2-32 36.8-2.2 12.6 2.4 23.3 4.4 27.8 2.8 6.7 6.7 12 33.6 36.6 11.7 10.6 15.7 13.9 18.1 17.8 0.1 0.1 0.9 1.6 1.8 3.3 7.3 15.2 6.5 37.5 9 52.5 0.5 3.1 3.7 20.6 16.1 36.3 4.1 5.1 18.1 23.1 40.7 25.3 21.7 2.1 43-12.3 47.2-15.1 8.8-6 11-9.8 20.9-15 12.8-7.1 23.4-8.6 30.3-8.9 46.4-1.4 69.4 52.6 110.8 45.8 3.1-0.5 12.2-2.1 21.4-9 9.2-7 15.7-17.3 22.4-37.8 5.2-16 11.6-41.1 12.9-74.4l-25.9-10.5c17.5-29.9 27.7-65.7 27.6-104.2z"/><path class="b" d="m381.1 190.2q20.2-8.3 40.3-16.7c9.6-4 20.7-8 30-3.1 10.8 5.8 13.3 20.7 12.1 33.3-2.2 24.8-13.5 47.9-28.3 67.5-14.8 19.6-33 36.1-51.1 52.4"/><path class="c" d="m374.5 318.8c-11.3 0-20.3-16.5-20.3-36.8 0-20.4 9-36.8 20.3-36.8 11.2 0 20.3 16.4 20.3 36.8 0 20.3-9.1 36.8-20.3 36.8z"/><path class="d" d="m160.2 120.1c-17.7 0-32.9 14.7-39.3 35.5q0.2 0.1 0.4 0.2 0.1 0.1 0.2 0.1-0.1 0-0.1-0.1 0.1 0.1 0.1 0.1 0.5 0.2 0.9 0.4 0.4 0.2 0.8 0.6 0.4 0.2 0.7 0.5 0.4 0.1 0.8 0.3l29.7 17.5c3.5 2 3.6 7.3 0.1 9.5l-29 18.3q-0.7 0.5-1.5 0.6-0.5 0.4-1.1 0.6-0.1 0-0.3 0.1c7.2 18.1 21.3 30.5 37.6 30.5 23.6 0 42.6-25.7 42.6-57.4 0-31.7-19-57.3-42.6-57.3z"/><path class="d" d="m309.9 116.8c-17.8 0-33 14.6-39.4 35.5q0.3 0.1 0.5 0.2 0.1 0.1 0.1 0.1 0 0 0-0.1 0 0.1 0.1 0.1 0.4 0.2 0.9 0.4 0.4 0.2 0.8 0.6 0.4 0.2 0.7 0.5 0.4 0.1 0.8 0.3l29.7 17.5c3.5 2 3.5 7.3 0.1 9.5l-29.1 18.3q-0.7 0.5-1.4 0.6-0.5 0.4-1.1 0.6-0.2 0-0.3 0.1c7.2 18.1 21.3 30.5 37.6 30.5 23.5 0 42.6-25.7 42.6-57.4 0-31.7-19.1-57.3-42.6-57.3z"/><path class="d" d="m215.5 254.2c-0.5 8.4 5.1 16.5 12.8 19.1 7.8 2.7 15.7-1.7 19.6-8.7 2.2-4 3-8.7 2.1-13.2-0.4-2.3-3.8-1.3-3.3 1 1.5 7.8-4.2 17.1-12.2 18-8.7 1.1-15.9-7.8-15.4-16.2 0.1-2.3-3.4-2.3-3.6 0z"/><path class="d" d="m219.1 253.7q13.6 0 27.2 0c2.3 0 2.3-3.6 0-3.6q-13.6 0-27.2 0c-2.2 0-2.2 3.6 0 3.6z"/><path class="d" d="m127.8 311.4c4.9 2.9 9.7 6 14.9 8.2 19.1 8.2 41.5 3.3 59.3-7.8 15.2-9.5 27.7-23.1 39.6-37 9.6-18-1.8-36.8-17.2-43.3-11.2-4.9-24.1-3.9-35.7-0.1-21.8 7.1-41.2 25.7-45.2 49.4-1.1 6.4-1.1 13.1-3.2 19.2-2.1 6.1-7.1 11.8-13.3 11.8"/><path class="d" d="m346.7 309.6c-4.9 2.9-9.7 6-14.9 8.2-19.1 8.2-41.5 3.3-59.2-7.8-15.3-9.5-27.8-23.1-39.7-37-9.6-18 1.9-36.8 17.2-43.3 11.3-4.9 24.2-3.9 35.8-0.1 21.7 7.1 41.1 25.7 45.2 49.4 1.1 6.4 1.1 13.1 3.2 19.2 2.1 6.1 7 11.9 13.2 11.8"/></svg>