<?xml version="1.0" encoding="utf-8"?>
<!-- Generator: Adobe Illustrator 27.2.0, SVG Export Plug-In . SVG Version: 6.00 Build 0)  -->
<svg version="1.1" id="Layer_1" xmlns="http://www.w3.org/2000/svg" xmlns:xlink="http://www.w3.org/1999/xlink" x="0px" y="0px"
	 viewBox="0 0 366 366" style="enable-background:new 0 0 366 366;" xml:space="preserve">
<style type="text/css">
	.st0{fill:#E85072;}
	.st1{fill:#C4375C;}
	.st2{fill:#C1164B;}
	.st3{opacity:0.92;}
	.st4{fill:#FFC931;}
	.st5{fill:#F2F2F2;}
	.st6{fill:#39B54A;}
	.st7{fill:#8CC63F;}
	.st8{fill:#006837;}
	.st9{fill:#009245;}
</style>
<g>
	<g>
		<path class="st0" d="M305.46,163.37c0-74.96-55.88-135.72-124.82-135.72c-64.63,0-117.79,53.41-124.18,121.86
			c-5.41,1.16-12.32,3.32-19.63,7.56c-8.28,4.8-21.38,12.4-24.03,26.51c-1.71,9.13,1.71,16.89,3.15,20.16
			c2.12,4.81,4.98,8.68,25.09,26.57c8.64,7.68,11.63,10.1,13.48,12.91c0.04,0.05,0.67,1.13,1.28,2.36
			c5.43,11.01,4.75,27.14,6.62,38.01c0.38,2.18,2.71,14.86,11.93,26.24c3.03,3.74,13.46,16.74,30.36,18.42
			c16.26,1.61,32.21-8.76,35.35-10.8c6.61-4.3,8.24-7.04,15.67-10.77c9.6-5.09,17.49-6.18,22.7-6.32
			c34.67-0.89,51.75,38.19,82.73,33.43c2.33-0.36,9.15-1.48,16-6.45c6.96-5.04,11.78-12.47,16.88-27.32
			c3.94-11.48,8.83-29.64,9.87-53.71l-19.37-7.7C297.75,217.07,305.46,191.2,305.46,163.37z"/>
		<g>
			<path class="st1" d="M309.96,163.37c-0.04-27.54-7.49-55.05-22.12-78.46c-13.65-21.85-33.42-40.1-56.97-50.77
				c-24.24-10.98-51.56-13.87-77.53-7.86c-25.36,5.87-48.43,20.22-65.67,39.63c-18.07,20.34-30,45.88-34.31,72.72
				c-0.58,3.61-1.04,7.23-1.39,10.87c1.1-1.45,2.2-2.89,3.3-4.34c-9.92,2.15-19.07,6.59-27.51,12.15
				c-8.03,5.29-15.19,12.12-18.35,21.43c-3.18,9.38-1.13,19.3,3,28.02c1.72,3.63,4.42,6.73,7.17,9.61
				c6.53,6.86,13.74,13.09,20.83,19.36c2.93,2.59,5.98,5.11,8.7,7.93c0.39,0.41,0.76,0.83,1.13,1.25c0.08,0.1,0.16,0.2,0.24,0.3
				c0.43,0.47-0.36-0.46-0.36-0.47c0.08,0.25,0.37,0.51,0.51,0.73c0.52,0.81,0.96,1.69,1.37,2.56c0.13,0.26,0.25,0.53,0.37,0.8
				c0.31,0.68-0.21-0.55,0.07,0.15c0.25,0.63,0.49,1.26,0.7,1.91c0.85,2.52,1.46,5.11,1.94,7.73c0.11,0.63,0.22,1.27,0.32,1.9
				c0.05,0.32,0.1,0.64,0.15,0.96c0.01,0.08,0.13,0.87,0.04,0.25c0.18,1.28,0.32,2.57,0.45,3.86c0.53,5.12,0.81,10.26,1.48,15.37
				c1.02,7.88,3.41,15.4,7.18,22.42c8.33,15.52,23.86,28.76,42.05,29.49c10.5,0.42,20.97-3.29,30.08-8.26
				c2.76-1.51,5.45-3.17,8-5.01c2.08-1.5,4.05-3.14,6.08-4.7c-0.74,0.57,0.46-0.34,0.64-0.47c0.44-0.32,0.89-0.63,1.34-0.94
				c1.03-0.69,2.08-1.33,3.17-1.93c4.9-2.71,9.74-4.74,15.31-5.91c0.53-0.11,1.06-0.21,1.6-0.31c0.19-0.03,1.64-0.26,1.11-0.18
				c-0.53,0.07,0.61-0.07,0.84-0.09c0.56-0.06,1.12-0.11,1.67-0.14c2-0.13,4.01-0.13,6.01,0c0.52,0.03,1.03,0.08,1.55,0.13
				c0.26,0.03,0.51,0.07,0.77,0.09c0.69,0.05-0.74-0.13-0.06-0.01c1.05,0.19,2.11,0.35,3.16,0.58c1.99,0.44,3.95,1.01,5.86,1.69
				c0.46,0.16,0.92,0.33,1.37,0.51c0.17,0.07,1.46,0.58,0.99,0.39c-0.47-0.2,0.8,0.35,0.97,0.43c0.5,0.23,0.99,0.46,1.49,0.7
				c1.8,0.87,3.57,1.83,5.3,2.84c13.57,7.96,25.1,19.95,40.43,24.65c7.48,2.29,15.55,2.28,23.05,0.07
				c9.43-2.78,17.25-8.8,22.5-17.05c5.05-7.94,8.13-17.2,10.77-26.17c2.85-9.7,4.81-19.61,6.12-29.63
				c0.78-5.92,1.28-11.87,1.55-17.84c0.1-2.14-1.5-3.62-3.3-4.34c-6.46-2.57-12.91-5.14-19.37-7.7c0.9,2.2,1.79,4.41,2.69,6.61
				c10.99-17.98,17.78-38.16,20.39-59.03C309.58,175.71,309.95,169.54,309.96,163.37c0-2.43-2.07-4.5-4.5-4.5
				c-2.44,0-4.5,2.06-4.5,4.5c-0.04,19.97-4.21,40.27-12.46,58.25c-2.32,5.06-4.95,9.97-7.85,14.71c-1.65,2.71,0.08,5.57,2.69,6.61
				c6.46,2.57,12.91,5.14,19.37,7.7c-1.1-1.45-2.2-2.89-3.3-4.34c-0.87,19.4-4.34,38.72-11.41,57.19c-0.94,2.45-1.55,3.95-2.76,6.42
				c-0.97,1.99-2.04,3.94-3.24,5.8c-0.49,0.76-1.02,1.49-1.55,2.23c-0.48,0.67-0.03,0.03,0.07-0.08c-0.14,0.18-0.28,0.36-0.43,0.53
				c-0.32,0.39-0.65,0.77-0.99,1.15c-1.19,1.33-2.5,2.52-3.87,3.65c-0.62,0.51,0.69-0.49-0.23,0.16c-0.61,0.43-1.21,0.86-1.84,1.25
				c-1.3,0.83-2.65,1.57-4.05,2.22c-0.68,0.32-0.74,0.34-1.17,0.5c-0.49,0.18-0.98,0.37-1.48,0.54c-1.05,0.35-2.11,0.66-3.19,0.92
				c-0.76,0.18-1.53,0.34-2.31,0.48c-0.25,0.04-0.5,0.08-0.75,0.12c-0.15,0.02-0.3,0.04-0.45,0.07c-0.57,0.1,0.82-0.08-0.06,0
				c-1.86,0.17-3.71,0.26-5.58,0.16c-0.45-0.02-0.9-0.06-1.35-0.1c-0.27-0.03-1.71-0.25-0.47-0.04c-0.93-0.16-1.86-0.31-2.78-0.52
				c-1.72-0.39-3.42-0.91-5.07-1.53c-0.42-0.15-0.82-0.33-1.24-0.48c-0.48-0.17,0.28,0.12,0.31,0.13c-0.2-0.09-0.41-0.18-0.61-0.27
				c-0.87-0.39-1.73-0.8-2.58-1.23c-1.68-0.85-3.31-1.78-4.92-2.76c-6.52-3.98-12.51-8.73-18.77-13.09
				c-6.71-4.67-13.79-8.89-21.6-11.44c-8.09-2.65-16.71-3.1-25.06-1.53c-5.49,1.03-10.78,3.05-15.74,5.59
				c-4.54,2.33-8.45,5.2-12.44,8.34c-0.1,0.08-0.67,0.5-0.08,0.06c-0.23,0.18-0.46,0.35-0.7,0.52c-0.44,0.32-0.88,0.64-1.32,0.95
				c-0.78,0.55-1.58,1.08-2.39,1.6c-1.02,0.66-2.05,1.29-3.1,1.91c-1.58,0.92-3.19,1.79-4.84,2.6c-0.98,0.48-1.96,0.93-2.96,1.37
				c-0.11,0.05-0.78,0.34-0.11,0.05c-0.27,0.11-0.54,0.22-0.81,0.33c-0.63,0.25-1.26,0.49-1.89,0.73c-2.39,0.87-4.82,1.61-7.31,2.15
				c-2.68,0.59-4.36,0.83-7.24,0.9c-1.37,0.03-2.73-0.01-4.09-0.14c-0.18-0.02-1.65-0.21-0.96-0.1c-0.77-0.12-1.54-0.26-2.3-0.43
				c-1.11-0.24-2.2-0.54-3.28-0.88c-0.56-0.18-1.12-0.37-1.67-0.57c-0.2-0.08-0.41-0.16-0.61-0.23c-1.31-0.48,0.74,0.36-0.51-0.21
				c-2-0.9-3.92-1.93-5.76-3.11c-0.86-0.55-1.7-1.14-2.53-1.75c-0.15-0.11-0.3-0.22-0.45-0.34c-0.54-0.4,0.55,0.45,0.04,0.03
				c-0.41-0.34-0.83-0.67-1.24-1.02c-2.39-2.03-4.6-4.27-6.63-6.66c-2.54-2.98-4.72-6.16-6.59-9.65c-0.61-1.13-1.18-2.28-1.71-3.45
				c-0.08-0.17-0.65-1.47-0.36-0.79c-0.28-0.65-0.54-1.32-0.79-1.98c-0.68-1.8-1.28-3.64-1.79-5.5c-0.34-1.23-0.64-2.48-0.89-3.74
				c-0.07-0.33-0.13-0.67-0.19-1.01c-0.08-0.46-0.15-0.92-0.22-1.39c-0.02-0.13-0.14-0.98-0.06-0.42c0.08,0.58-0.07-0.55-0.08-0.66
				c-0.6-5-0.88-10.04-1.42-15.05c-0.98-9.08-2.4-19.47-8.63-26.62c-2.11-2.43-4.63-4.51-7.03-6.63
				c-4.33-3.83-8.66-7.66-12.92-11.56c-4.82-4.41-9.71-8.85-13.86-13.91c-0.61-0.75,0.48,0.66,0.18,0.24
				c-0.12-0.17-0.26-0.34-0.38-0.52c-0.23-0.32-0.45-0.65-0.67-0.98c-0.38-0.58-0.73-1.19-1.06-1.8c-0.33-0.64-0.63-1.29-0.92-1.95
				c-0.12-0.28-0.24-0.56-0.37-0.84c0.52,1.19-0.01-0.05-0.13-0.36c-0.39-0.99-0.74-1.99-1.05-3c-0.32-1.04-0.59-2.1-0.81-3.17
				c-0.13-0.62-0.25-1.24-0.33-1.86c0.08,0.62-0.02-0.2-0.02-0.27c-0.04-0.42-0.07-0.84-0.1-1.26c-0.16-2.78,0.05-5.19,0.76-7.77
				c0.14-0.49,0.29-0.98,0.45-1.46c0.09-0.27,0.19-0.54,0.29-0.81c0.04-0.1,0.37-0.93,0.17-0.45c-0.2,0.47,0.15-0.33,0.2-0.43
				c0.12-0.25,0.24-0.51,0.37-0.76c0.28-0.56,0.58-1.11,0.9-1.64c0.52-0.89,1.1-1.73,1.7-2.57c0.41-0.57-0.4,0.49,0.04-0.06
				c0.17-0.21,0.34-0.42,0.51-0.63c0.39-0.47,0.79-0.92,1.2-1.37c1.44-1.56,3.01-3,4.66-4.34c0.2-0.16,0.41-0.33,0.61-0.49
				c-0.65,0.52-0.12,0.09,0.01-0.01c0.41-0.3,0.82-0.61,1.24-0.91c0.81-0.58,1.64-1.14,2.47-1.69c3.69-2.42,7.54-4.71,11.53-6.6
				c4.14-1.96,8.92-3.51,13.67-4.54c2.06-0.45,3.12-2.43,3.3-4.34c0.61-6.42,1.63-12.69,3.3-19.61c1.55-6.39,3.53-12.67,5.94-18.78
				c1.14-2.89,2.04-4.96,3.6-8.2c1.39-2.89,2.87-5.73,4.45-8.51c1.57-2.76,3.23-5.47,4.99-8.11c0.91-1.37,1.85-2.73,2.81-4.07
				c0.4-0.56,0.8-1.11,1.21-1.66c0.24-0.33,0.49-0.66,0.74-0.99c0.09-0.13,1.11-1.43,0.54-0.71c3.84-4.91,8.01-9.57,12.5-13.9
				c2.23-2.15,4.53-4.21,6.91-6.19c1.13-0.94,2.28-1.87,3.45-2.77c-0.77,0.59,0.29-0.21,0.36-0.27c0.32-0.24,0.64-0.48,0.96-0.72
				c0.64-0.48,1.29-0.95,1.95-1.41c5.06-3.6,10.38-6.81,15.93-9.6c1.37-0.69,2.75-1.35,4.15-1.99c0.61-0.28,1.22-0.55,1.83-0.81
				c0.1-0.04,1.32-0.56,0.4-0.18c0.49-0.21,0.99-0.41,1.48-0.61c2.86-1.15,5.76-2.19,8.69-3.11c5.93-1.86,12.01-3.24,18.17-4.13
				c0.12-0.02,1.47-0.19,0.43-0.06c0.41-0.05,0.81-0.1,1.22-0.15c0.68-0.08,1.36-0.16,2.04-0.22c1.65-0.17,3.29-0.29,4.94-0.39
				c3.18-0.18,6.38-0.23,9.57-0.15c3.2,0.08,6.4,0.29,9.59,0.63c0.74,0.08,1.48,0.17,2.22,0.26c1.34,0.16-0.92-0.14,0.41,0.06
				c0.4,0.06,0.8,0.12,1.2,0.18c1.59,0.24,3.18,0.52,4.76,0.83c6,1.17,11.9,2.83,17.64,4.93c1.36,0.5,2.72,1.02,4.06,1.57
				c0.11,0.04,1.32,0.55,0.39,0.16c0.36,0.15,0.73,0.31,1.09,0.47c0.72,0.32,1.45,0.64,2.16,0.97c2.75,1.27,5.45,2.64,8.1,4.11
				c2.65,1.47,5.24,3.05,7.77,4.71c1.27,0.83,2.52,1.69,3.76,2.57c0.59,0.42,1.18,0.85,1.76,1.28c0.32,0.24,0.64,0.47,0.95,0.71
				c0.11,0.09,1.18,0.9,0.81,0.61c-0.51-0.39,0.52,0.41,0.48,0.38c0.31,0.25,0.62,0.49,0.93,0.74c0.62,0.5,1.23,1,1.84,1.51
				c1.22,1.02,2.42,2.06,3.61,3.13c2.27,2.05,4.48,4.18,6.6,6.39c2.14,2.22,4.19,4.51,6.17,6.87c0.95,1.14,1.87,2.29,2.79,3.45
				c0.83,1.05-0.52-0.7,0.28,0.37c0.24,0.32,0.49,0.65,0.73,0.97c0.49,0.65,0.97,1.3,1.44,1.96c3.67,5.09,6.98,10.43,9.91,15.97
				c1.55,2.93,3,5.91,4.34,8.94c0.28,0.64,0.56,1.27,0.83,1.91c-0.37-0.88,0.16,0.39,0.19,0.47c0.16,0.39,0.32,0.77,0.47,1.16
				c0.62,1.56,1.22,3.13,1.79,4.71c2.21,6.14,3.99,12.43,5.34,18.81c0.69,3.25,1.25,6.53,1.73,9.81c0.21,1.42-0.11-0.89,0.07,0.54
				c0.05,0.43,0.11,0.87,0.16,1.3c0.09,0.73,0.17,1.45,0.25,2.18c0.18,1.76,0.34,3.52,0.46,5.28c0.24,3.42,0.35,6.84,0.35,10.27
				c0,2.43,2.07,4.5,4.5,4.5C307.9,167.87,309.96,165.81,309.96,163.37z"/>
		</g>
	</g>
	<g>
		<path class="st0" d="M295.71,159.8c10.06-4,20.11-8,30.17-12c7.22-2.87,15.55-5.71,22.44-2.12c8.06,4.19,9.89,15,9,24.08
			c-1.77,17.91-10.3,34.61-21.41,48.73s-24.76,25.98-38.32,37.74"/>
		<g>
			<path class="st1" d="M296.91,164.14c6.65-2.65,13.3-5.29,19.96-7.94c6.05-2.41,12.09-5.23,18.4-6.88
				c0.76-0.2,1.53-0.38,2.31-0.52c0.35-0.07,0.7-0.13,1.05-0.18c-0.86,0.14,0.05,0,0.27-0.02c0.76-0.07,1.52-0.11,2.28-0.1
				c0.27,0,0.55,0.01,0.82,0.02c0.27,0.01,0.54,0.03,0.82,0.06c-0.52-0.08-0.51-0.08,0.02,0c0.67,0.13,1.33,0.27,1.98,0.48
				c0.26,0.08,0.52,0.18,0.78,0.27c-0.89-0.32,0.36,0.18,0.45,0.23c0.49,0.26,0.97,0.54,1.42,0.85c0.07,0.05,0.85,0.71,0.33,0.23
				c-0.51-0.47,0.43,0.41,0.52,0.49c0.39,0.37,0.74,0.77,1.1,1.17c0.7,0.75-0.33-0.58-0.01-0.03c0.13,0.23,0.31,0.44,0.46,0.66
				c0.3,0.45,0.57,0.92,0.83,1.39c0.16,0.29,0.3,0.58,0.44,0.88c0.13,0.28,0.67,1.04,0.08,0.14c0.56,0.85,0.79,2.25,1.03,3.22
				c0.14,0.56,0.26,1.12,0.36,1.68c0.06,0.34,0.12,0.68,0.17,1.03c0.18,1.04-0.06-0.78,0.02,0.19c0.22,2.55,0.29,5.08,0.08,7.63
				c-0.05,0.65-0.12,1.3-0.2,1.94c-0.03,0.28-0.07,0.56-0.1,0.84c0.13-1-0.06,0.39-0.08,0.48c-0.23,1.53-0.52,3.06-0.85,4.58
				c-0.63,2.89-1.42,5.75-2.36,8.56c-0.45,1.34-0.93,2.67-1.44,3.98c-0.26,0.66-0.52,1.31-0.79,1.97c0.36-0.86-0.19,0.43-0.21,0.49
				c-0.17,0.39-0.34,0.78-0.52,1.16c-2.53,5.56-5.58,10.88-9.01,15.93c-0.8,1.18-1.62,2.34-2.45,3.48
				c-0.42,0.57-0.84,1.14-1.27,1.71c-0.03,0.04-0.88,1.15-0.33,0.44c-0.27,0.34-0.54,0.69-0.81,1.03c-1.98,2.5-4.05,4.94-6.18,7.32
				c-9.76,10.89-20.83,20.5-31.86,30.07c-1.78,1.55-1.7,4.8,0,6.36c1.9,1.75,4.46,1.65,6.36,0c20.04-17.38,40.7-35.54,52.41-59.87
				c2.86-5.94,5.23-12.16,6.77-18.58c1.38-5.76,2.36-11.84,1.99-17.78c-0.34-5.49-1.63-11.23-4.96-15.72
				c-4.04-5.43-10.28-8.29-17.05-7.95c-7.81,0.39-15.07,3.86-22.22,6.71c-7.74,3.08-15.47,6.16-23.21,9.23
				c-2.18,0.87-3.95,3.05-3.14,5.54C292.06,163.11,294.57,165.07,296.91,164.14L296.91,164.14z"/>
		</g>
	</g>
	<ellipse class="st0" cx="290.65" cy="225.69" rx="15.18" ry="26.61"/>
</g>
<path class="st2" d="M120.49,111.86c-13.29,0-24.67,10.61-29.44,25.67c0.11,0.05,0.22,0.11,0.32,0.17c0.04,0.02,0.08,0.03,0.12,0.05
	c-0.01-0.01-0.02-0.02-0.03-0.03c0.02,0.02,0.05,0.03,0.07,0.04c0.23,0.09,0.45,0.19,0.67,0.3c0.22,0.11,0.42,0.24,0.6,0.4
	c0.19,0.1,0.37,0.22,0.53,0.35c0.21,0.07,0.41,0.16,0.61,0.27l22.18,12.61c2.61,1.49,2.67,5.3,0.1,6.87l-21.75,13.27
	c-0.34,0.21-0.69,0.35-1.05,0.44c-0.26,0.17-0.55,0.3-0.87,0.39c-0.07,0.03-0.13,0.06-0.2,0.09c5.35,13.11,15.94,22.04,28.14,22.04
	c17.59,0,31.85-18.57,31.85-41.47S138.09,111.86,120.49,111.86z"/>
<path class="st2" d="M233.91,116.09c-13.29,0-24.67,10.61-29.44,25.67c0.11,0.05,0.22,0.11,0.32,0.17c0.04,0.02,0.08,0.03,0.12,0.05
	c-0.01-0.01-0.02-0.02-0.03-0.03c0.02,0.02,0.05,0.03,0.07,0.04c0.23,0.09,0.45,0.19,0.67,0.3c0.22,0.11,0.42,0.24,0.6,0.4
	c0.19,0.1,0.37,0.22,0.53,0.35c0.21,0.07,0.41,0.16,0.61,0.27l22.18,12.61c2.61,1.49,2.67,5.3,0.1,6.87l-21.75,13.27
	c-0.34,0.21-0.69,0.35-1.05,0.44c-0.26,0.17-0.55,0.3-0.87,0.39c-0.07,0.03-0.13,0.06-0.2,0.09c5.35,13.11,15.94,22.04,28.14,22.04
	c17.59,0,31.85-18.57,31.85-41.47S251.5,116.09,233.91,116.09z"/>
<g class="st3">
	<g>
		<path class="st2" d="M161.83,202.61c-1.17,8.67,5.92,16.23,14.48,16.74c8.15,0.48,16.51-6.43,16.27-14.85
			c-0.11-3.85-6.11-3.87-6,0c0.07,2.37-0.93,4.4-2.83,6.17c-1.91,1.77-4.48,2.77-7.07,2.7c-2.47-0.07-4.9-1.28-6.67-3.12
			c-0.76-0.79-1.55-2-1.85-2.78c-0.24-0.61-0.42-1.26-0.52-1.9c0.07,0.46-0.02-0.42-0.02-0.51c0-0.13,0.04-1.21-0.01-0.85
			c0.22-1.6-0.39-3.22-2.1-3.69C164.13,200.13,162.05,200.99,161.83,202.61L161.83,202.61z"/>
	</g>
</g>
<g>
	
		<ellipse transform="matrix(0.9921 -0.1254 0.1254 0.9921 -8.2771 32.4947)" class="st4" cx="254.03" cy="82.01" rx="14.57" ry="15.5"/>
	<g>
		<g>
			<path class="st5" d="M250.93,64.48c-1.06-3.39-2.81-8.26-0.18-11.4c2.63-3.14,7.59-1.33,10.57,0.18c3.9,1.98,7.7,4.23,11.52,6.38
				c1.56,0.88,3.21,1.82,4.17,3.4c0.81,1.32,1.12,2.9,0.95,4.44c-0.47,4.23-4.57,5.85-8.1,7.03c-1.82,0.61-1.04,3.5,0.8,2.89
				c4.11-1.37,8.41-3.23,9.87-7.68c1.36-4.12-0.23-8.52-3.65-11.07c-2.07-1.55-4.48-2.69-6.74-3.94c-2.36-1.32-4.7-2.69-7.1-3.93
				c-4.04-2.08-9.42-3.77-13.44-0.69c-4.75,3.65-3.07,10.38-1.56,15.19C248.61,67.12,251.51,66.33,250.93,64.48L250.93,64.48z"/>
		</g>
	</g>
	<g>
		<g>
			<path class="st5" d="M237.44,85.68c-4.21,1.37-8.86,3.19-10.39,7.78c-1.54,4.61,1.56,9.13,5.08,11.81
				c1.98,1.52,4.2,2.68,6.38,3.88c2.44,1.35,4.87,2.7,7.31,4.04c2.06,1.13,4.26,2.3,6.68,2.24c2.01-0.04,3.89-0.84,5.42-2.13
				c4.5-3.79,3.31-9.86,1.79-14.79c-0.57-1.84-3.46-1.05-2.89,0.8c1.06,3.44,2.49,7.94-0.16,11.03c-0.96,1.12-2.33,1.93-3.81,2.07
				c-1.85,0.18-3.56-0.75-5.13-1.61c-3.75-2.05-7.54-4.05-11.21-6.23c-3.05-1.81-6.69-4.55-6.83-8.46c-0.17-4.6,5.04-6.4,8.58-7.55
				C240.07,87.98,239.29,85.08,237.44,85.68L237.44,85.68z"/>
		</g>
	</g>
	<g>
		<g>
			<path class="st5" d="M247.24,65c-1.29-4.31-2.94-9.05-7.13-11.35c-4.15-2.27-8.89-0.55-11.84,2.83c-1.57,1.81-2.76,3.9-3.99,5.94
				c-1.34,2.23-2.69,4.45-4.02,6.69c-1.14,1.9-2.18,3.96-2.09,6.24c0.08,2.01,0.84,3.95,2.04,5.55c3.43,4.59,8.79,4.94,14.07,4.25
				c0.81-0.11,1.49-0.61,1.5-1.5c0.01-0.73-0.7-1.61-1.5-1.5c-3.71,0.49-7.87,0.85-10.76-2c-1.11-1.09-1.95-2.49-2.25-4.03
				c-0.34-1.8,0.37-3.41,1.26-4.94c2.03-3.49,4.09-7.01,6.29-10.4c1.88-2.91,4.95-6.14,8.8-4.96c4.18,1.28,5.65,6.3,6.75,9.99
				C244.89,67.65,247.79,66.86,247.24,65L247.24,65z"/>
		</g>
	</g>
	<g>
		<g>
			<path class="st5" d="M271.72,80.68c3.54-1.03,7.92-2.23,11.15,0.3c3.14,2.45,2.86,6.86,1.73,10.25
				c-1.4,4.18-3.37,8.25-5.14,12.29c-0.69,1.58-1.47,3.29-3.08,4.1c-1.36,0.69-2.98,0.72-4.44,0.34c-4.13-1.08-6.05-5.28-7.63-8.85
				c-0.78-1.76-3.36-0.24-2.59,1.51c1.8,4.07,4.04,8.22,8.41,9.9c3.92,1.51,8.4,0.44,10.72-3.16c1.36-2.11,2.17-4.63,3.16-6.93
				c1.07-2.51,2.22-5,3.17-7.56c1.61-4.35,1.92-9.54-1.37-13.23c-3.87-4.32-9.98-3.29-14.9-1.86
				C269.08,78.33,269.86,81.22,271.72,80.68L271.72,80.68z"/>
		</g>
	</g>
	<g>
		<g>
			<path class="st6" d="M227.82,87.04c-0.51,1.14-1.15,2.23-1.92,3.21c-0.44,0.56-1.47,1.69-2.17,0.85
				c-0.32-0.38-0.42-0.94-0.47-1.41c-0.07-0.67-0.1-1.36-0.31-2.01c-0.13-0.39-0.55-1.11-0.34-1.53c0.17-0.33,0.76-0.13,1.07-0.03
				c1.43,0.47,2.81,1.1,4.14,1.78c0.86,0.44,1.62-0.85,0.76-1.3c-1.48-0.76-3.03-1.49-4.62-1.97c-0.77-0.23-1.64-0.24-2.27,0.31
				c-0.61,0.53-0.69,1.38-0.51,2.12c0.09,0.38,0.26,0.74,0.37,1.12c0.11,0.39,0.15,0.78,0.19,1.18c0.07,0.78,0.16,1.55,0.54,2.24
				c0.35,0.64,0.95,1.13,1.68,1.24c0.82,0.13,1.59-0.18,2.22-0.7c0.67-0.55,1.19-1.32,1.67-2.04c0.49-0.74,0.92-1.51,1.28-2.32
				c0.16-0.37,0.11-0.81-0.27-1.03C228.52,86.58,227.98,86.67,227.82,87.04L227.82,87.04z"/>
		</g>
	</g>
	<g>
		<g>
			<path class="st6" d="M280.47,75.07c0.51-1.14,1.15-2.23,1.92-3.21c0.44-0.56,1.47-1.69,2.17-0.85c0.32,0.38,0.42,0.94,0.47,1.41
				c0.07,0.67,0.1,1.36,0.31,2.01c0.13,0.39,0.55,1.11,0.34,1.53c-0.17,0.33-0.76,0.13-1.07,0.03c-1.43-0.47-2.81-1.1-4.14-1.78
				c-0.86-0.44-1.62,0.85-0.76,1.3c1.48,0.76,3.03,1.49,4.62,1.97c0.77,0.23,1.64,0.24,2.27-0.31c0.61-0.53,0.69-1.38,0.51-2.12
				c-0.09-0.38-0.26-0.74-0.37-1.12c-0.11-0.39-0.15-0.78-0.19-1.18c-0.07-0.78-0.16-1.55-0.54-2.24c-0.35-0.64-0.95-1.13-1.68-1.24
				c-0.82-0.13-1.59,0.18-2.22,0.7c-0.67,0.55-1.19,1.32-1.67,2.04c-0.49,0.74-0.92,1.51-1.28,2.32c-0.16,0.37-0.11,0.81,0.27,1.03
				C279.76,75.53,280.31,75.45,280.47,75.07L280.47,75.07z"/>
		</g>
	</g>
	<g>
		<g>
			<path class="st6" d="M245.09,55.15c0.8-1.38,1.5-2.96,1.79-4.53c0.15-0.81,0.13-1.63-0.25-2.38c-0.36-0.71-1.03-1.17-1.81-1.26
				c-0.77-0.09-1.5,0.18-2.16,0.53c-0.3,0.16-0.59,0.34-0.9,0.48c-0.33,0.15-0.68,0.21-1.03,0.29c-0.78,0.18-1.53,0.56-1.82,1.35
				c-0.29,0.8,0.07,1.64,0.59,2.25c0.57,0.66,1.33,1.2,2.01,1.73c0.74,0.58,1.5,1.13,2.29,1.65c0.81,0.54,1.56-0.76,0.76-1.3
				c-1.08-0.72-2.11-1.49-3.1-2.33c-0.39-0.33-0.97-0.71-1.12-1.23c-0.13-0.45,0.31-0.58,0.68-0.67c0.62-0.15,1.19-0.3,1.76-0.6
				c0.48-0.25,0.96-0.59,1.5-0.68c1.13-0.19,1.32,1.01,1.14,1.86c-0.3,1.41-0.89,2.8-1.61,4.05
				C243.31,55.23,244.61,55.98,245.09,55.15L245.09,55.15z"/>
		</g>
	</g>
	<g>
		<g>
			<path class="st6" d="M262.43,107.12c-0.8,1.38-1.5,2.96-1.79,4.53c-0.15,0.81-0.13,1.63,0.25,2.38c0.36,0.71,1.03,1.17,1.81,1.26
				c0.77,0.09,1.5-0.18,2.16-0.53c0.3-0.16,0.59-0.34,0.9-0.48c0.33-0.15,0.68-0.21,1.03-0.29c0.78-0.18,1.53-0.56,1.82-1.35
				c0.29-0.8-0.07-1.64-0.59-2.25c-0.57-0.66-1.33-1.2-2.01-1.73c-0.74-0.58-1.5-1.13-2.29-1.65c-0.81-0.54-1.56,0.76-0.76,1.3
				c1.08,0.72,2.11,1.49,3.1,2.33c0.39,0.33,0.97,0.71,1.12,1.23c0.13,0.45-0.31,0.58-0.68,0.67c-0.62,0.15-1.19,0.3-1.76,0.6
				c-0.48,0.25-0.96,0.59-1.5,0.68c-1.13,0.19-1.32-1.01-1.14-1.86c0.3-1.41,0.89-2.8,1.61-4.05
				C264.21,107.04,262.91,106.28,262.43,107.12L262.43,107.12z"/>
		</g>
	</g>
	<g>
		<g>
			<path class="st7" d="M220.71,93.05c-0.65,0.43-1.01,1.13-1.05,1.9c-0.04,0.75,0.31,1.48,0.93,1.9c0.59,0.39,1.36,0.37,1.99,0.09
				c0.66-0.3,1.07-1.02,1.02-1.73c-0.07-0.94-0.7-1.68-1.36-2.29c-0.29-0.27-0.78-0.31-1.06,0c-0.27,0.29-0.31,0.78,0,1.06
				c0.12,0.11,0.24,0.23,0.36,0.34c0.06,0.06,0.12,0.12,0.17,0.19c0.03,0.03,0.05,0.06,0.08,0.1c0.02,0.02,0.04,0.04,0.05,0.07
				c-0.07-0.09-0.09-0.11-0.05-0.07c0.09,0.13,0.18,0.27,0.26,0.41c0.07,0.15-0.04-0.11-0.01-0.04c0.01,0.04,0.03,0.07,0.04,0.11
				c0.02,0.08,0.04,0.16,0.05,0.24c-0.01-0.07-0.02-0.13-0.03-0.2c0.01,0.12,0.01,0.23,0,0.35c0.01-0.07,0.02-0.13,0.03-0.2
				c-0.01,0.07-0.02,0.13-0.04,0.19c-0.02,0.07-0.07,0.11,0.03-0.07c-0.01,0.02-0.02,0.05-0.04,0.07c-0.01,0.02-0.03,0.05-0.04,0.07
				c-0.06,0.09,0.12-0.13,0.06-0.08c-0.04,0.04-0.08,0.08-0.12,0.12c-0.06,0.06,0.17-0.12,0.08-0.06c-0.02,0.02-0.05,0.03-0.07,0.05
				c-0.05,0.03-0.1,0.05-0.15,0.08c0.24-0.12,0.07-0.03-0.01-0.01c-0.06,0.01-0.11,0.03-0.17,0.03c0.07-0.01,0.13-0.02,0.2-0.03
				c-0.12,0.02-0.25,0.02-0.37,0c0.07,0.01,0.13,0.02,0.2,0.03c-0.06-0.01-0.12-0.02-0.18-0.04c-0.03-0.01-0.05-0.02-0.08-0.03
				c-0.08-0.02,0.2,0.1,0.07,0.03c-0.06-0.03-0.11-0.06-0.16-0.1c-0.1-0.06,0.15,0.13,0.06,0.04c-0.02-0.02-0.04-0.04-0.06-0.06
				c-0.02-0.02-0.04-0.05-0.06-0.07c0.14,0.13,0.08,0.11,0.04,0.05c-0.04-0.05-0.07-0.11-0.1-0.17c-0.06-0.11,0.06,0.18,0.03,0.06
				c-0.01-0.03-0.02-0.06-0.03-0.09c-0.02-0.07-0.04-0.15-0.05-0.22c0.01,0.07,0.02,0.13,0.03,0.2c-0.02-0.15-0.02-0.3,0-0.46
				c-0.01,0.07-0.02,0.13-0.03,0.2c0.01-0.11,0.04-0.21,0.07-0.32c0.01-0.04,0.08-0.2,0.02-0.06c-0.06,0.14,0.02-0.04,0.04-0.07
				c0.02-0.04,0.05-0.08,0.08-0.12c0.07-0.11-0.1,0.12-0.05,0.06c0.02-0.02,0.03-0.04,0.05-0.06c0.04-0.04,0.07-0.07,0.11-0.11
				c0.07-0.07-0.07,0.06-0.08,0.06c0,0,0.07-0.05,0.08-0.05c0.33-0.21,0.5-0.67,0.27-1.03C221.53,93,221.06,92.82,220.71,93.05
				L220.71,93.05z"/>
		</g>
	</g>
	<g>
		<g>
			<path class="st8" d="M216.57,84.99c-0.64,0.08-1.21,0.34-1.64,0.83c-0.41,0.47-0.67,1.03-0.75,1.65
				c-0.18,1.32,0.54,2.54,1.6,3.29c1.14,0.8,2.79,0.99,3.79-0.13c0.93-1.04,1.07-2.56,0.52-3.82c-0.57-1.27-2.02-2.17-3.42-2.01
				c-0.4,0.05-0.75,0.31-0.75,0.75c0,0.37,0.35,0.8,0.75,0.75c0.11-0.01,0.21-0.02,0.32-0.02c0.06,0,0.12,0,0.18,0.01
				c0.03,0,0.14,0.02,0.01,0c0.09,0.02,0.19,0.04,0.28,0.06c0.05,0.01,0.09,0.03,0.14,0.04c0.02,0.01,0.2,0.09,0.09,0.03
				c0.1,0.05,0.2,0.1,0.29,0.16c0.04,0.03,0.08,0.05,0.12,0.08c0.02,0.02,0.14,0.11,0.05,0.04c0.08,0.06,0.15,0.13,0.22,0.2
				c0.03,0.04,0.07,0.07,0.1,0.11c0.14,0.15-0.05-0.09,0.07,0.08c0.12,0.18,0.21,0.35,0.26,0.47c0.04,0.11,0.07,0.22,0.1,0.34
				c0.01,0.05,0.02,0.1,0.03,0.15c-0.02-0.13,0.01,0.11,0.01,0.11c0.02,0.43-0.05,0.79-0.22,1.11c-0.05,0.09-0.1,0.18-0.16,0.26
				c0.06-0.08-0.02,0.02-0.03,0.03c-0.04,0.05-0.09,0.09-0.13,0.14c-0.12,0.11-0.26,0.2-0.44,0.22c-0.14,0.02-0.36-0.01-0.53-0.05
				c-0.1-0.03-0.21-0.06-0.31-0.1c-0.13-0.05,0.15,0.08-0.05-0.02c-0.05-0.03-0.11-0.05-0.16-0.08c-0.1-0.05-0.19-0.11-0.28-0.17
				c-0.04-0.03-0.08-0.06-0.12-0.08c0.09,0.07-0.01-0.01-0.02-0.02c-0.08-0.07-0.16-0.15-0.24-0.23c-0.04-0.04-0.08-0.09-0.12-0.14
				c-0.08-0.09,0,0.01-0.04-0.05c-0.06-0.09-0.12-0.18-0.18-0.28c-0.02-0.04-0.13-0.26-0.08-0.15c-0.04-0.1-0.07-0.21-0.1-0.31
				c-0.01-0.05-0.02-0.1-0.03-0.14c-0.01-0.06-0.01-0.05,0,0.03c0-0.03-0.01-0.07-0.01-0.1c-0.01-0.12,0-0.23,0-0.35
				c0.01-0.12-0.02,0.11,0-0.01c0.01-0.07,0.03-0.13,0.05-0.2c0.01-0.04,0.03-0.09,0.04-0.13c0.01-0.03,0.02-0.06,0.03-0.1
				c-0.03,0.06-0.03,0.07-0.01,0.02c0.05-0.1,0.1-0.2,0.16-0.29c0.01-0.02,0.09-0.13,0.04-0.06c-0.05,0.06,0.07-0.08,0.09-0.1
				c0.03-0.03,0.06-0.06,0.09-0.09c0.02-0.02,0.05-0.04,0.07-0.06c-0.06,0.04-0.07,0.05-0.02,0.02c0.04-0.02,0.07-0.05,0.11-0.07
				c0.02-0.01,0.2-0.1,0.11-0.06c-0.09,0.04,0.04-0.01,0.06-0.02c0.04-0.01,0.26-0.05,0.09-0.03c0.4-0.05,0.75-0.31,0.75-0.75
				C217.32,85.37,216.97,84.94,216.57,84.99L216.57,84.99z"/>
		</g>
	</g>
	<g>
		<g>
			<path class="st6" d="M218.42,83.7c0.97,0,0.97-1.5,0-1.5C217.45,82.2,217.45,83.7,218.42,83.7L218.42,83.7z"/>
		</g>
	</g>
	<g>
		<g>
			<path class="st8" d="M271.11,113.52c-1.63,0.66-2.26,2.51-1.73,4.13c0.53,1.6,1.94,2.92,3.6,3.26c1.62,0.33,3.25-0.29,4.22-1.64
				c0.53-0.74,0.8-1.69,0.65-2.59c-0.15-0.85-0.77-1.59-1.39-2.16c-1.45-1.33-3.57-1.88-5.23-0.58c-0.32,0.25-0.26,0.8,0,1.06
				c0.31,0.31,0.74,0.25,1.06,0c0.86-0.67,2.11-0.23,2.87,0.37c0.42,0.34,0.87,0.77,1.11,1.26c0.24,0.49,0.11,1.07-0.14,1.53
				c-0.48,0.88-1.42,1.39-2.41,1.34c-1.08-0.05-2.09-0.77-2.62-1.68c-0.29-0.5-0.48-1.1-0.39-1.68c0.08-0.45,0.35-0.99,0.8-1.17
				c0.38-0.15,0.64-0.5,0.52-0.92C271.94,113.69,271.49,113.37,271.11,113.52L271.11,113.52z"/>
		</g>
	</g>
	<g>
		<g>
			<path class="st7" d="M265.72,116.95c-0.22,0.09-0.37,0.17-0.55,0.32c-0.12,0.1-0.22,0.23-0.3,0.36
				c-0.18,0.27-0.25,0.59-0.28,0.91c-0.06,0.65,0.28,1.31,0.83,1.65c0.55,0.33,1.29,0.33,1.84-0.01c0.13-0.08,0.26-0.18,0.37-0.3
				c0.15-0.18,0.24-0.33,0.33-0.55c0.13-0.31,0.11-0.66,0.05-0.98c-0.07-0.35-0.26-0.67-0.49-0.93c-0.12-0.13-0.26-0.25-0.41-0.33
				c-0.15-0.09-0.32-0.16-0.49-0.19c-0.2-0.03-0.39-0.03-0.58,0.08c-0.16,0.09-0.3,0.27-0.34,0.45c-0.04,0.19-0.03,0.41,0.08,0.58
				c0.1,0.15,0.26,0.31,0.45,0.34c0.07,0.01,0.14,0.03,0.2,0.06c-0.06-0.03-0.12-0.05-0.18-0.08c0.08,0.03,0.15,0.08,0.22,0.13
				c-0.05-0.04-0.1-0.08-0.15-0.12c0.08,0.06,0.15,0.13,0.21,0.21c-0.04-0.05-0.08-0.1-0.12-0.15c0.07,0.09,0.12,0.18,0.16,0.28
				c-0.03-0.06-0.05-0.12-0.08-0.18c0.04,0.1,0.07,0.21,0.09,0.31c-0.01-0.07-0.02-0.13-0.03-0.2c0.01,0.09,0.01,0.18,0,0.28
				c0.01-0.07,0.02-0.13,0.03-0.2c-0.01,0.08-0.03,0.17-0.07,0.24c0.03-0.06,0.05-0.12,0.08-0.18c-0.03,0.06-0.06,0.12-0.1,0.18
				c0.04-0.05,0.08-0.1,0.12-0.15c-0.05,0.06-0.1,0.11-0.16,0.16c0.05-0.04,0.1-0.08,0.15-0.12c-0.07,0.05-0.14,0.1-0.23,0.13
				c0.06-0.03,0.12-0.05,0.18-0.08c-0.09,0.04-0.18,0.06-0.27,0.07c0.07-0.01,0.13-0.02,0.2-0.03c-0.1,0.01-0.19,0.01-0.29,0
				c0.07,0.01,0.13,0.02,0.2,0.03c-0.09-0.01-0.17-0.04-0.26-0.07c0.06,0.03,0.12,0.05,0.18,0.08c-0.08-0.03-0.15-0.07-0.22-0.12
				c0.05,0.04,0.1,0.08,0.15,0.12c-0.06-0.05-0.12-0.1-0.17-0.16c0.04,0.05,0.08,0.1,0.12,0.15c-0.05-0.07-0.09-0.14-0.13-0.22
				c0.03,0.06,0.05,0.12,0.08,0.18c-0.04-0.09-0.06-0.18-0.08-0.28c0.01,0.07,0.02,0.13,0.03,0.2c-0.01-0.11-0.01-0.22,0-0.33
				c-0.01,0.07-0.02,0.13-0.03,0.2c0.02-0.1,0.04-0.2,0.08-0.3c-0.03,0.06-0.05,0.12-0.08,0.18c0.04-0.09,0.08-0.17,0.14-0.24
				c-0.04,0.05-0.08,0.1-0.12,0.15c0.05-0.06,0.1-0.12,0.17-0.17c-0.05,0.04-0.1,0.08-0.15,0.12c0.05-0.04,0.11-0.07,0.17-0.1
				c-0.06,0.03-0.12,0.05-0.18,0.08c0.01,0,0.01-0.01,0.02-0.01c0.19-0.08,0.34-0.16,0.45-0.34c0.09-0.16,0.13-0.4,0.08-0.58
				c-0.06-0.18-0.17-0.36-0.34-0.45C266.13,116.94,265.9,116.88,265.72,116.95L265.72,116.95z"/>
		</g>
	</g>
	<g>
		<g>
			<path class="st8" d="M261.42,118.06c0.11-0.08,0.22-0.16,0.33-0.24c0.09-0.05,0.16-0.11,0.21-0.19c0.07-0.07,0.11-0.16,0.13-0.26
				c0.03-0.1,0.04-0.2,0.01-0.3c0-0.1-0.03-0.19-0.09-0.28c-0.04-0.05-0.08-0.1-0.12-0.15c-0.09-0.09-0.2-0.16-0.33-0.19
				c-0.07-0.01-0.13-0.02-0.2-0.03c-0.14,0-0.26,0.03-0.38,0.1c-0.11,0.08-0.22,0.16-0.33,0.24c-0.09,0.05-0.16,0.11-0.21,0.19
				c-0.07,0.07-0.11,0.16-0.13,0.26c-0.03,0.1-0.04,0.2-0.01,0.3c0,0.1,0.03,0.19,0.09,0.28c0.04,0.05,0.08,0.1,0.12,0.15
				c0.09,0.09,0.2,0.16,0.33,0.19c0.07,0.01,0.13,0.02,0.2,0.03C261.17,118.16,261.3,118.12,261.42,118.06L261.42,118.06z"/>
		</g>
	</g>
	<g>
		<g>
			<path class="st8" d="M235.53,40.14c-1.46,1.04-2.49,2.7-2.39,4.54c0.09,1.79,1.14,3.42,2.88,4c1.64,0.54,3.41-0.05,4.4-1.46
				c0.98-1.39,1.02-3.32,0.18-4.78c-0.98-1.71-3.16-2.87-5.1-2.18c-0.38,0.13-0.64,0.51-0.52,0.92c0.1,0.37,0.54,0.66,0.92,0.52
				c1.16-0.41,2.4,0.15,3.14,1.08c0.71,0.9,0.88,2.15,0.39,3.18c-0.48,1-1.48,1.56-2.53,1.38c-1.21-0.21-2.01-1.16-2.21-2.35
				c-0.24-1.39,0.5-2.77,1.62-3.56c0.33-0.23,0.49-0.65,0.27-1.03C236.36,40.09,235.86,39.91,235.53,40.14L235.53,40.14z"/>
		</g>
	</g>
	<g>
		<g>
			<path class="st9" d="M232.96,49.32c-0.98,0.88-0.48,2.87,0.87,3.06c0.71,0.1,1.44-0.28,1.77-0.91c0.35-0.65,0.21-1.42-0.29-1.95
				c-0.52-0.55-1.39-0.79-2.08-0.4c-0.18,0.1-0.24,0.34-0.13,0.51c0.1,0.18,0.34,0.23,0.51,0.13c0.03-0.01,0.05-0.03,0.08-0.04
				c0.08-0.04-0.07,0.02,0.02-0.01c0.06-0.01,0.11-0.03,0.17-0.04c-0.1,0.02-0.01,0,0.01,0c0.03,0,0.06,0,0.09,0
				c0.03,0,0.06,0,0.09,0c0.02,0,0.04,0,0.06,0.01c-0.05-0.01-0.06-0.01-0.01,0c0.06,0.01,0.11,0.03,0.17,0.04
				c0.03,0.01,0.06,0.02,0.08,0.03c0.09,0.03-0.07-0.04,0.02,0.01c0.04,0.02,0.09,0.05,0.13,0.07c0.03,0.02,0.05,0.03,0.08,0.05
				c0.01,0.01,0.11,0.09,0.05,0.03c0.05,0.04,0.09,0.08,0.13,0.12c0.02,0.02,0.04,0.04,0.06,0.07c0.01,0.01,0.07,0.09,0.02,0.02
				c0.03,0.05,0.07,0.1,0.1,0.15c0.01,0.03,0.03,0.05,0.04,0.08c0.02,0.04,0.02,0.04,0-0.01c0.01,0.02,0.01,0.04,0.02,0.06
				c0.02,0.06,0.03,0.12,0.04,0.18c0.02,0.1,0-0.08,0,0.02c0,0.02,0,0.04,0,0.07c0,0.03,0,0.06,0,0.1c0,0.02-0.02,0.12,0,0.03
				c-0.01,0.07-0.03,0.14-0.06,0.21c-0.03,0.1,0.04-0.06-0.01,0.03c-0.01,0.03-0.03,0.06-0.04,0.08c-0.02,0.03-0.03,0.05-0.05,0.08
				c-0.01,0.01-0.07,0.09-0.01,0.02c-0.04,0.05-0.08,0.09-0.13,0.14c-0.02,0.02-0.05,0.04-0.07,0.06c-0.03,0.03-0.03,0.03,0,0
				c-0.02,0.01-0.03,0.02-0.05,0.04c-0.04,0.03-0.09,0.06-0.13,0.08c-0.03,0.01-0.06,0.03-0.08,0.04c0.08-0.04-0.01,0-0.02,0.01
				c-0.06,0.02-0.12,0.04-0.18,0.05c-0.02,0-0.12,0.01-0.02,0.01c-0.04,0-0.08,0.01-0.12,0.01c-0.03,0-0.06,0-0.09,0
				c-0.1,0,0.07,0.02-0.02,0c-0.06-0.01-0.12-0.03-0.18-0.05c-0.09-0.03,0.05,0.03-0.02-0.01c-0.02-0.01-0.05-0.03-0.07-0.04
				c-0.02-0.01-0.03-0.02-0.05-0.03c-0.02-0.01-0.03-0.02-0.05-0.03c0.04,0.03,0.04,0.03,0.01,0.01c-0.04-0.04-0.08-0.08-0.12-0.12
				c-0.02-0.02-0.04-0.04-0.05-0.06c0.06,0.07,0,0-0.01-0.02c-0.03-0.05-0.06-0.1-0.09-0.15c-0.01-0.03-0.02-0.05-0.04-0.08
				c0.04,0.09-0.01-0.03-0.02-0.04c-0.02-0.06-0.04-0.13-0.06-0.2c-0.01-0.03-0.01-0.06-0.02-0.09c-0.02-0.09,0,0.06,0-0.02
				c0-0.07-0.01-0.13-0.01-0.2c0-0.03,0-0.06,0-0.09c0-0.02,0-0.04,0.01-0.06c-0.01,0.05-0.01,0.06,0,0.02
				c0.01-0.06,0.03-0.13,0.05-0.19c0.01-0.03,0.02-0.05,0.03-0.08c0.02-0.04,0.01-0.03-0.01,0.01c0.01-0.02,0.02-0.03,0.02-0.05
				c0.03-0.06,0.06-0.11,0.1-0.16c-0.06,0.08,0,0.01,0.01-0.01c0.03-0.03,0.05-0.05,0.08-0.08c0.15-0.14,0.14-0.39,0-0.53
				C233.34,49.17,233.11,49.18,232.96,49.32L232.96,49.32z"/>
		</g>
	</g>
	<g>
		<g>
			<path class="st6" d="M243.41,44.94c-0.02,0.16-0.03,0.32,0.04,0.48c0.06,0.15,0.14,0.29,0.26,0.4c0.12,0.11,0.25,0.19,0.41,0.25
				c0.12,0.04,0.25,0.06,0.38,0.05c0.12-0.01,0.2-0.04,0.31-0.08c0.07-0.03,0.13-0.08,0.19-0.13c0.11-0.1,0.19-0.24,0.23-0.38
				c0.08-0.27,0.03-0.57-0.1-0.81c-0.15-0.3-0.44-0.5-0.78-0.52c-0.2-0.01-0.38,0.18-0.38,0.38c0.01,0.21,0.16,0.36,0.38,0.38
				c0.01,0,0.02,0,0.03,0c-0.03,0-0.07-0.01-0.1-0.01c0.04,0.01,0.08,0.02,0.12,0.03c-0.03-0.01-0.06-0.03-0.09-0.04
				c0.04,0.02,0.08,0.04,0.11,0.07c-0.03-0.02-0.05-0.04-0.08-0.06c0.04,0.03,0.08,0.07,0.11,0.11c-0.02-0.03-0.04-0.05-0.06-0.08
				c0.04,0.05,0.07,0.11,0.1,0.17c-0.01-0.03-0.03-0.06-0.04-0.09c0.03,0.07,0.05,0.13,0.06,0.2c0-0.03-0.01-0.07-0.01-0.1
				c0.01,0.06,0.01,0.12,0,0.18c0-0.03,0.01-0.07,0.01-0.1c-0.01,0.05-0.02,0.1-0.04,0.15c0.01-0.03,0.03-0.06,0.04-0.09
				c-0.02,0.04-0.04,0.07-0.06,0.1c0.02-0.03,0.04-0.05,0.06-0.08c-0.02,0.03-0.05,0.06-0.08,0.08c0.03-0.02,0.05-0.04,0.08-0.06
				c-0.03,0.02-0.06,0.04-0.09,0.05c0.03-0.01,0.06-0.03,0.09-0.04c-0.04,0.01-0.07,0.02-0.11,0.03c0.03,0,0.07-0.01,0.1-0.01
				c-0.05,0.01-0.09,0.01-0.14,0c0.03,0,0.07,0.01,0.1,0.01c-0.06-0.01-0.11-0.02-0.16-0.04c0.03,0.01,0.06,0.03,0.09,0.04
				c-0.06-0.03-0.12-0.06-0.17-0.1c0.03,0.02,0.05,0.04,0.08,0.06c-0.05-0.04-0.09-0.08-0.13-0.13c0.02,0.03,0.04,0.05,0.06,0.08
				c-0.03-0.04-0.06-0.09-0.08-0.14c0.01,0.03,0.03,0.06,0.04,0.09c-0.02-0.05-0.03-0.09-0.04-0.14c0,0.03,0.01,0.07,0.01,0.1
				c0-0.04-0.01-0.08,0-0.12c0,0.03-0.01,0.07-0.01,0.1c0,0,0-0.01,0-0.01c0.01-0.1,0.02-0.19-0.04-0.29
				c-0.05-0.08-0.13-0.15-0.22-0.17c-0.1-0.02-0.2-0.02-0.29,0.04C243.51,44.77,243.43,44.85,243.41,44.94L243.41,44.94z"/>
		</g>
	</g>
	<g>
		<g>
			<path class="st7" d="M247.48,47.4c0.06-0.11,0.11-0.22,0.17-0.33c0.03-0.04,0.04-0.09,0.04-0.14c0.01-0.05,0.01-0.1-0.01-0.15
				c-0.01-0.05-0.03-0.09-0.07-0.13c-0.03-0.04-0.06-0.07-0.11-0.1c-0.03-0.01-0.06-0.03-0.09-0.04c-0.07-0.02-0.13-0.02-0.2,0
				c-0.03,0.01-0.06,0.03-0.09,0.04c-0.06,0.03-0.1,0.08-0.13,0.13c-0.06,0.11-0.11,0.22-0.17,0.33c-0.03,0.04-0.04,0.09-0.04,0.14
				c-0.01,0.05-0.01,0.1,0.01,0.15c0.01,0.05,0.03,0.09,0.07,0.13c0.03,0.04,0.06,0.07,0.11,0.1c0.03,0.01,0.06,0.03,0.09,0.04
				c0.07,0.02,0.13,0.02,0.2,0c0.03-0.01,0.06-0.03,0.09-0.04C247.41,47.51,247.45,47.46,247.48,47.4L247.48,47.4z"/>
		</g>
	</g>
	<g>
		<g>
			<path class="st8" d="M290.92,69.28c-1.45,0.4-3,1.16-3.28,2.81c-0.27,1.58,0.58,3.22,1.8,4.19c0.65,0.52,1.44,0.91,2.3,0.9
				c0.88-0.01,1.68-0.46,2.3-1.04c1.15-1.07,1.8-2.84,1.28-4.37c-0.53-1.55-2.25-2.86-3.93-2.29c-0.38,0.13-0.64,0.52-0.52,0.92
				c0.1,0.37,0.54,0.65,0.92,0.52c0.4-0.14,0.71-0.1,1.08,0.1c0.42,0.22,0.73,0.55,0.95,1c0.41,0.84,0.1,2.01-0.53,2.74
				c-0.35,0.4-0.82,0.82-1.36,0.91c-0.46,0.07-0.96-0.13-1.36-0.42c-0.83-0.57-1.48-1.62-1.47-2.6c0.01-0.49,0.22-0.94,0.66-1.26
				c0.43-0.32,1.01-0.5,1.57-0.66C292.25,70.47,291.86,69.02,290.92,69.28L290.92,69.28z"/>
		</g>
	</g>
	<g>
		<g>
			<path class="st9" d="M284.24,67.79c0.97,0,0.97-1.5,0-1.5C283.28,66.29,283.28,67.79,284.24,67.79L284.24,67.79z"/>
		</g>
	</g>
	<g>
		<g>
			<path class="st9" d="M289.12,77.81c-0.22,0.27-0.39,0.57-0.45,0.92c-0.06,0.36-0.05,0.72,0.05,1.07c0.2,0.67,0.7,1.25,1.4,1.43
				c0.69,0.18,1.46-0.04,1.96-0.55c0.51-0.52,0.69-1.3,0.45-1.99c-0.13-0.38-0.34-0.74-0.65-1c-0.36-0.31-0.75-0.48-1.22-0.52
				c-0.18-0.02-0.41,0.1-0.53,0.22c-0.13,0.13-0.23,0.34-0.22,0.53c0.01,0.19,0.07,0.4,0.22,0.53c0.15,0.14,0.32,0.2,0.53,0.22
				c0.02,0,0.04,0,0.06,0.01c-0.07-0.01-0.13-0.02-0.2-0.03c0.09,0.01,0.18,0.04,0.27,0.07c-0.06-0.03-0.12-0.05-0.18-0.08
				c0.08,0.03,0.15,0.07,0.22,0.12c0,0,0.05,0.04,0.05,0.04c0,0.01-0.15-0.13-0.08-0.06c0.04,0.03,0.07,0.07,0.11,0.1
				c0.03,0.03,0.06,0.07,0.09,0.1c0.05,0.06-0.1-0.14-0.06-0.07c0.01,0.02,0.03,0.04,0.04,0.05c0.05,0.08,0.09,0.16,0.13,0.25
				c-0.03-0.06-0.05-0.12-0.08-0.18c0.05,0.12,0.08,0.25,0.1,0.38c-0.01-0.07-0.02-0.13-0.03-0.2c0.01,0.11,0.01,0.21,0,0.32
				c0.01-0.07,0.02-0.13,0.03-0.2c-0.01,0.1-0.04,0.19-0.07,0.28c0.03-0.06,0.05-0.12,0.08-0.18c-0.03,0.08-0.07,0.14-0.12,0.22
				c-0.06,0.11,0.13-0.15,0.04-0.06c-0.03,0.03-0.05,0.06-0.08,0.09c-0.02,0.02-0.08,0.06-0.09,0.08c0.01-0.03,0.17-0.12,0.05-0.05
				c-0.07,0.04-0.14,0.08-0.21,0.11c0.06-0.03,0.12-0.05,0.18-0.08c-0.11,0.05-0.23,0.08-0.35,0.09c0.07-0.01,0.13-0.02,0.2-0.03
				c-0.11,0.01-0.22,0.01-0.33,0c0.07,0.01,0.13,0.02,0.2,0.03c-0.09-0.01-0.18-0.04-0.26-0.07c0.06,0.03,0.12,0.05,0.18,0.08
				c-0.08-0.03-0.15-0.07-0.22-0.12c-0.1-0.07,0.14,0.13,0.06,0.04c-0.03-0.03-0.06-0.05-0.09-0.08c-0.05-0.05-0.11-0.17,0.02,0.04
				c-0.02-0.03-0.04-0.05-0.05-0.07c-0.04-0.07-0.08-0.14-0.12-0.22c0.03,0.06,0.05,0.12,0.08,0.18c-0.06-0.13-0.09-0.27-0.12-0.42
				c0.01,0.07,0.02,0.13,0.03,0.2c-0.02-0.13-0.02-0.26,0-0.4c-0.01,0.07-0.02,0.13-0.03,0.2c0.02-0.12,0.05-0.23,0.09-0.35
				c-0.03,0.06-0.05,0.12-0.08,0.18c0.02-0.05,0.04-0.09,0.07-0.13c0.04-0.06,0.15-0.2-0.02,0.01c0.13-0.16,0.22-0.32,0.22-0.53
				c0-0.18-0.08-0.4-0.22-0.53C289.91,77.56,289.38,77.48,289.12,77.81L289.12,77.81z"/>
		</g>
	</g>
</g>
</svg>
