<svg version="1.2" xmlns="http://www.w3.org/2000/svg" viewBox="0 0 414 369" width="414" height="369"><style>.a{fill:#c68ff2}.b{fill:#a867c6}.c{fill:#1a1a1a}.d{fill:none;stroke:#000;stroke-miterlimit:10;stroke-width:3}</style><path class="a" d="m346.3 164.7c0-86.2-63.7-156.1-142.3-156.1-73.6 0-134.2 61.4-141.5 140.2-6.2 1.3-14 3.8-22.4 8.7-9.4 5.5-24.3 14.2-27.4 30.5-1.9 10.5 2 19.4 3.6 23.2 2.4 5.5 5.7 9.9 28.6 30.5 9.9 8.9 13.3 11.6 15.4 14.9 0 0 0.8 1.3 1.5 2.7 6.1 12.7 5.4 31.2 7.5 43.7 0.4 2.5 3.1 17.1 13.6 30.2 3.4 4.3 15.3 19.3 34.6 21.2 18.5 1.9 36.7-10.1 40.3-12.4 7.5-5 9.4-8.1 17.8-12.4 11-5.9 20-7.1 25.9-7.3 39.5-1 59 43.9 94.3 38.5 2.7-0.4 10.4-1.7 18.2-7.4 8-5.8 13.5-14.4 19.3-31.5 4.5-13.2 10-34.1 11.2-61.8l-22.1-8.8c15.1-24.8 23.9-54.6 23.9-86.6z"/><path class="b" d="m350.8 164.7c-0.1-31.6-8.5-63.1-25.2-90-15.5-25-38-45.9-64.8-58.2-27.5-12.4-58.5-15.7-87.8-8.8-28.9 6.8-55 23.2-74.5 45.4-20.5 23.4-34 52.6-38.9 83.3q-1 6.2-1.6 12.4 1.7-2.2 3.3-4.4c-11.2 2.5-21.6 7.6-31.1 13.9-9.1 6-17.3 13.9-20.8 24.5-3.5 10.6-1.2 21.7 3.4 31.5 2 4.1 5 7.6 8.1 10.9 7.4 7.8 15.5 14.9 23.5 22.1 3.4 3 6.9 5.9 10.1 9.2q0.6 0.7 1.3 1.5c0.6 0.7 0 0 0-0.1 0.1 0.3 0.3 0.5 0.5 0.8 1.4 2.1 2.2 4.1 3 6.3 3.8 11.2 3.5 22.8 5 34.5 1.1 8.9 3.7 17.3 7.7 25.2 9.2 17.7 26.6 33.2 47.3 34.3 12 0.7 24-3.6 34.4-9.3 3.2-1.8 6.3-3.7 9.3-5.9 4.8-3.5 8-6.6 13.2-9.4 5.6-3.1 11.4-5.5 17.6-6.7 2.7-0.6 3.2-0.7 5.9-0.8q3.6-0.3 7.2 0.1c2.3 0.1 3.5 0.3 6.2 0.9q3.4 0.8 6.6 2 0.8 0.3 1.6 0.6 0.4 0.2 0.8 0.4c0.7 0.2-0.6-0.3 0.1 0q1.6 0.7 3.2 1.5 3.1 1.5 6 3.3c15.4 9.2 28.5 23 46 28.2 8.4 2.5 17.5 2.4 25.9-0.2 10.5-3.3 19.1-10.1 24.9-19.4 5.7-9.1 9.2-19.7 12.2-30 3.2-11 5.4-22.3 6.9-33.7q1.3-10.2 1.7-20.5c0.1-2.1-1.5-3.6-3.3-4.3q-11-4.5-22.1-8.9 1.4 3.3 2.7 6.6c12.5-20.6 20.2-43.7 23.2-67.5 0.9-7.1 1.3-14.2 1.3-21.3 0-5.8-9-5.8-9 0 0 23.1-4.7 46.3-14.3 67.4q-4 8.7-8.9 16.9c-1.7 2.7 0 5.6 2.7 6.6q11 4.4 22 8.9-1.6-2.2-3.3-4.4c-1 22.4-5 44.7-12.9 65.7-1.8 4.9-4 9.8-6.9 14.3q-0.8 1.4-1.7 2.6c-0.1 0.1-0.6 0.8-0.3 0.4 0.3-0.4-0.1 0.1-0.1 0.1q-0.6 0.8-1.2 1.5-2 2.2-4.3 4.1-0.3 0.2-0.6 0.5c0.1 0 0.6-0.5 0.2-0.2q-0.9 0.7-1.8 1.3-2.3 1.5-4.7 2.7c-2.1 1.1-4.5 1.9-6.9 2.5q-1.3 0.3-2.6 0.6-0.5 0.1-1 0.1c-0.3 0.1-1.5 0.2-0.6 0.1q-3.2 0.4-6.4 0.3-1.6-0.1-3.1-0.3c0.9 0.1-0.2 0-0.5-0.1q-0.9-0.1-1.7-0.3-3-0.7-5.8-1.7-0.7-0.3-1.4-0.6-0.4-0.1-0.7-0.2c0.1 0 0.7 0.3 0 0-1-0.5-1.9-0.9-2.8-1.4q-2.8-1.4-5.5-3c-7.5-4.6-14.4-10.1-21.6-15.2-7.6-5.3-15.5-10.1-24.3-13.1-9.2-3.1-18.9-3.7-28.4-2-6.2 1.1-12.2 3.4-17.8 6.2-5.2 2.7-9.7 6-14.2 9.6-1.5 1.1-3.5 2.6-5.4 3.8q-1.8 1.2-3.6 2.2c-4.1 2.5-8.3 4.5-12.5 6-5.5 2-11.2 3.4-17 3.5-3 0-5.4-0.3-8.3-0.9q-1.9-0.5-3.7-1.1-1-0.3-1.9-0.6c-1-0.4-0.7-0.3-1.5-0.6q-3.5-1.7-6.8-3.8-1.3-0.9-2.6-1.9c-0.6-0.5 0.4 0.3-0.1-0.1q-0.3-0.2-0.5-0.4-0.8-0.7-1.6-1.3c-2.6-2.3-5-4.8-7.3-7.5-6.2-7.5-10.4-15.8-12.8-25-0.8-3-1.4-6.2-1.6-8.6-0.7-5.7-1-11.4-1.6-17.1-1.1-10.2-2.7-21.9-9.7-30-2.5-2.8-5.4-5.2-8.2-7.7-4.9-4.4-9.8-8.8-14.7-13.3-5.4-5-10.8-10.1-15.6-15.8-0.4-0.6 0.7 0.9 0.1 0.1q-0.2-0.3-0.4-0.6-0.4-0.5-0.8-1.1-0.6-1-1.2-2.1-0.5-1-1-2.1c-0.1-0.4-0.5-1.2-0.1-0.3q-0.3-0.7-0.5-1.4-0.7-1.6-1.2-3.2c-1.7-5.5-2.2-11.1-0.7-16.8 1.2-4.7 3.7-8.8 6.9-12.2q2.5-2.8 5.3-5.1 0.4-0.3 0.7-0.6c0.6-0.4-0.4 0.4 0.2-0.1q0.6-0.4 1.2-0.9 1.5-1.1 3-2.1c4.2-2.8 8.6-5.4 13.1-7.5 5-2.4 10.3-4.1 15.7-5.3 2.1-0.5 3.1-2.4 3.3-4.4 1.4-14.7 5-30.2 10.7-44.5 2.4-6.3 5.7-13.1 9.3-19.5 3.6-6.3 7.6-12.4 12-18.2-0.4 0.6 0.5-0.6 0.5-0.6q0.3-0.3 0.5-0.7 0.9-1.1 1.8-2.2 1.8-2.2 3.7-4.3 3.6-4 7.4-7.7c5.1-5 10.4-9.4 15.7-13.3 11.6-8.2 23.9-14.5 37-18.7 27.2-8.6 56-7.9 82.9 2.1 11.8 4.4 25.1 11.9 35 19.7 11 8.6 21 19.2 28.8 30 4.2 5.9 7.9 12.1 11.3 18.5 3.5 6.7 6.1 12.6 8.6 19.6q3.8 10.6 6.1 21.7c1.6 7.7 2.6 14.4 3.1 22.2q0.4 6 0.4 11.9c0 5.8 9 5.8 9 0z"/><path class="a" d="m335.2 160.6q17.2-6.9 34.4-13.8c8.2-3.3 17.7-6.6 25.6-2.4 9.1 4.8 11.2 17.2 10.2 27.7-2 20.6-11.7 39.8-24.4 56-12.6 16.3-28.2 29.9-43.7 43.5"/><path class="b" d="m336.4 165q11.2-4.6 22.5-9.1c6.9-2.8 13.9-6.1 21.2-8q1.3-0.3 2.6-0.6 0.6-0.1 1.2-0.2c1.4-0.2-0.9 0 0.5 0 0.8-0.1 1.6-0.2 2.5-0.2q0.6 0 1.2 0.1c0.2 0 1.8 0.2 0.8 0q1.2 0.3 2.4 0.6 0.6 0.2 1.1 0.4c-0.9-0.4 0.4 0.2 0.5 0.3q0.7 0.3 1.4 0.8c0.2 0.1 1.1 0.7 0.1 0.1 0.4 0.2 0.7 0.5 1 0.8q0.7 0.6 1.3 1.4c0.3 0.2 1 0.7 0.1 0.1 0.2 0.1 0.4 0.5 0.6 0.7q0.5 0.9 1 1.7 0.2 0.5 0.4 0.9 0.2 0.3 0.3 0.6-0.3-0.9-0.1-0.2 0.7 1.8 1.2 3.6 0.2 1 0.4 2 0.1 0.5 0.2 1 0 0.4 0.1 0.7-0.1-0.9 0-0.2c0.2 2.9 0.3 5.8 0.1 8.7q-0.1 1.2-0.2 2.3-0.1 0.4-0.1 0.9c-0.2 1.3 0.1-0.9-0.1 0.4q-0.4 2.8-1 5.5-1 5.1-2.7 10.2-0.8 2.2-1.6 4.3-0.4 1.2-0.9 2.4c-0.5 1.3 0.3-0.8-0.2 0.5q-0.4 0.8-0.7 1.5c-2.8 6.4-6.3 12.5-10.1 18.2q-1.5 2.2-3 4.2-0.7 1.1-1.5 2.1-0.3 0.5-0.7 1c-0.1 0.1-0.9 1.1-0.4 0.4q-3.5 4.5-7.3 8.8c-11.1 12.5-23.7 23.6-36.3 34.6-1.8 1.6-1.7 4.8 0 6.4 1.9 1.7 4.4 1.7 6.3 0 11.7-10.2 23.4-20.5 33.9-31.9 10.1-11 19.2-23.2 25.7-36.7 3.2-6.7 5.9-13.7 7.6-21 1.6-6.6 2.8-13.6 2.4-20.5-0.4-6.2-1.8-12.8-5.6-17.8-4.5-6.1-11.5-9.3-19.1-8.9-7.8 0.5-15.1 3.8-22.3 6.7q-11.7 4.7-23.4 9.3-2.8 1.2-5.7 2.3c-2.2 0.9-3.9 3.1-3.1 5.6 0.6 2.1 3.1 4.1 5.5 3.2z"/><path class="a" d="m329.4 267c-9.5 0-17.3-13.6-17.3-30.6 0-16.9 7.8-30.6 17.3-30.6 9.6 0 17.3 13.7 17.3 30.6 0 17-7.7 30.6-17.3 30.6z"/><path class="c" d="m135.5 105.5c-15.2 0-28.1 12.2-33.6 29.5q0.2 0.1 0.4 0.2 0.1 0 0.1 0 0 0 0 0 0 0 0.1 0.1 0.4 0.1 0.7 0.3 0.4 0.2 0.7 0.5 0.4 0.1 0.6 0.4 0.4 0.1 0.7 0.3l25.3 14.5c3 1.7 3.1 6.1 0.1 7.9l-24.7 15.3q-0.6 0.3-1.2 0.5-0.5 0.3-1 0.4-0.1 0.1-0.3 0.1c6.1 15.1 18.2 25.4 32.1 25.4 20.1 0 36.3-21.4 36.3-47.8 0-26.3-16.3-47.6-36.3-47.6z"/><path class="c" d="m264.8 110.3c-15.2 0-28.2 12.2-33.6 29.6q0.2 0 0.4 0.2 0 0 0.1 0 0 0 0 0 0 0 0.1 0 0.3 0.2 0.7 0.4 0.4 0.2 0.7 0.4 0.3 0.2 0.6 0.4 0.4 0.1 0.7 0.3l25.3 14.5c3 1.8 3 6.2 0.1 7.9l-24.8 15.3q-0.6 0.4-1.2 0.5-0.4 0.3-1 0.5-0.1 0-0.2 0.1c6.1 15 18.2 25.3 32.1 25.3 20 0 36.3-21.3 36.3-47.7 0-26.3-16.3-47.7-36.3-47.7z"/><path class="c" d="m191 210.4c-0.4 6.9 4.3 13.7 10.9 15.9 6.6 2.2 13.4-1.5 16.7-7.3 1.9-3.3 2.6-7.2 1.8-10.9-0.3-1.9-3.2-1.1-2.9 0.8 1.3 6.5-3.5 14.2-10.4 15-7.3 0.9-13.5-6.5-13.1-13.5 0.1-1.9-2.9-1.9-3 0z"/><path class="c" d="m194.1 210q11.6 0 23.1 0c2 0 2-3 0-3q-11.5 0-23.1 0c-2 0-2 3 0 3z"/><path class="d" d="m121.8 222.1c-35.9 0-64.8-31.5-64.8-70.3 0-38.8 28.9-70.2 64.8-70.2 35.8 0 64.8 31.4 64.8 70.2 0 38.8-29 70.3-64.8 70.3z"/><path class="d" d="m184.8 148.7h33.3"/><path class="d" d="m284.8 224.4c-35.9 0-64.9-31.4-64.9-70.3 0-38.8 29-70.2 64.9-70.2 35.8 0 64.8 31.4 64.8 70.2 0 38.9-29 70.3-64.8 70.3z"/></svg>