<?xml version="1.0" encoding="utf-8"?>
<!-- Generator: Adobe Illustrator 27.2.0, SVG Export Plug-In . SVG Version: 6.00 Build 0)  -->
<svg version="1.1" id="Layer_1" xmlns="http://www.w3.org/2000/svg" xmlns:xlink="http://www.w3.org/1999/xlink" x="0px" y="0px"
	 viewBox="0 0 366 366" style="enable-background:new 0 0 366 366;" xml:space="preserve">
<style type="text/css">
	.st0{fill:#F7A96C;}
	.st1{fill:#D37637;}
	.st2{fill:#BA642A;}
	.st3{fill:#1A1A1A;}
</style>
<g>
	<g>
		<path class="st0" d="M302.87,165.32c0-75.39-55.5-136.5-123.97-136.5c-64.19,0-116.99,53.72-123.33,122.56
			c-5.38,1.16-12.24,3.34-19.5,7.6c-8.22,4.83-21.24,12.47-23.87,26.66c-1.7,9.18,1.7,16.99,3.13,20.27
			c2.11,4.84,4.95,8.73,24.92,26.72c8.58,7.73,11.55,10.16,13.39,12.99c0.04,0.05,0.67,1.14,1.27,2.37
			c5.4,11.07,4.71,27.3,6.57,38.22c0.37,2.2,2.69,14.95,11.85,26.39c3.01,3.76,13.37,16.84,30.15,18.53
			c16.15,1.62,31.99-8.81,35.11-10.86c6.57-4.33,8.19-7.08,15.56-10.83c9.54-5.12,17.37-6.22,22.54-6.35
			c34.43-0.89,51.39,38.41,82.17,33.62c2.32-0.36,9.08-1.49,15.89-6.48c6.91-5.07,11.7-12.54,16.77-27.48
			c3.92-11.55,8.77-29.82,9.81-54.02l-19.24-7.75C295.22,219.33,302.87,193.31,302.87,165.32z"/>
		<g>
			<path class="st1" d="M307.37,165.32c-0.04-27.63-7.4-55.24-21.92-78.81c-13.48-21.87-33.04-40.27-56.47-51.06
				c-24.02-11.06-51.17-14.02-76.97-8.04c-25.31,5.87-48.27,20.34-65.37,39.79c-18.04,20.52-29.88,46.22-34.18,73.18
				c-0.58,3.65-1.04,7.31-1.39,10.99c1.1-1.45,2.2-2.89,3.3-4.34c-9.84,2.16-18.9,6.6-27.25,12.16
				c-8.08,5.38-15.28,12.32-18.37,21.76c-3.08,9.38-1.04,19.23,3.02,27.94c1.71,3.66,4.41,6.8,7.16,9.72
				c6.54,6.95,13.77,13.28,20.87,19.64c2.85,2.55,5.81,5.03,8.45,7.8c0.39,0.41,0.75,0.84,1.12,1.26c0.69,0.77-0.49-0.73-0.12-0.17
				c0.16,0.25,0.35,0.48,0.51,0.74c0.51,0.82,0.95,1.7,1.36,2.57c0.13,0.27,0.25,0.53,0.37,0.8c0.3,0.68-0.21-0.54,0.06,0.16
				c0.25,0.63,0.48,1.27,0.7,1.92c0.82,2.46,1.42,4.99,1.88,7.53c0.2,1.09,0.46,2.76,0.56,3.48c0.11,0.81,0.31,2.58,0.43,3.77
				c0.52,5.08,0.8,10.18,1.44,15.25c1.01,7.91,3.33,15.44,7.04,22.52c8.15,15.55,23.53,29.01,41.68,29.86
				c10.54,0.49,21.08-3.29,30.19-8.33c2.74-1.52,5.41-3.19,7.93-5.04c2.1-1.54,4.1-3.21,6.15-4.81c-0.72,0.57,0.52-0.38,0.68-0.5
				c0.4-0.29,0.8-0.57,1.2-0.84c1.13-0.76,2.29-1.47,3.49-2.12c4.89-2.68,9.67-4.68,15.21-5.8c0.53-0.11,1.06-0.21,1.59-0.29
				c0.3-0.05,1.73-0.23,0.68-0.11c0.96-0.11,1.93-0.21,2.9-0.26c2.04-0.12,4.09-0.09,6.12,0.07c0.51,0.04,1.02,0.1,1.53,0.15
				c0.2,0.02,0.88,0.14-0.06-0.01c0.25,0.04,0.5,0.07,0.75,0.12c1.05,0.17,2.09,0.38,3.13,0.62c1.97,0.47,3.91,1.06,5.81,1.77
				c0.46,0.17,0.91,0.35,1.36,0.53c0.18,0.07,0.8,0.33-0.06-0.03c0.22,0.1,0.45,0.19,0.67,0.29c0.94,0.42,1.88,0.86,2.8,1.32
				c1.79,0.9,3.54,1.88,5.26,2.92c13.34,8.05,24.77,20.03,40.01,24.58c7.5,2.24,15.62,2.12,23.07-0.24
				c9.23-2.92,16.8-8.94,21.89-17.12c4.99-8.01,8.04-17.31,10.65-26.33c2.8-9.7,4.73-19.61,6.03-29.61
				c0.77-5.96,1.27-11.94,1.54-17.94c0.1-2.15-1.5-3.61-3.3-4.34c-6.41-2.58-12.83-5.17-19.24-7.75c0.9,2.2,1.79,4.41,2.69,6.61
				c10.93-18.11,17.66-38.4,20.26-59.36C306.99,177.74,307.36,171.53,307.37,165.32c0-2.43-2.07-4.5-4.5-4.5
				c-2.44,0-4.5,2.06-4.5,4.5c-0.04,20.08-4.17,40.5-12.37,58.6c-2.3,5.08-4.92,10.02-7.8,14.8c-1.64,2.72,0.08,5.56,2.69,6.61
				c6.41,2.58,12.83,5.17,19.24,7.75c-1.1-1.45-2.2-2.89-3.3-4.34c-0.5,11.31-1.73,21.57-4.08,32.55
				c-1.8,8.39-4.14,16.69-7.16,24.73c-0.98,2.61-1.56,4.04-2.73,6.51c-0.94,1.96-1.96,3.88-3.11,5.71
				c-0.49,0.77-0.99,1.53-1.53,2.27c-0.14,0.19-0.28,0.37-0.42,0.57c0.54-0.77,0.2-0.26,0.07-0.09c-0.32,0.39-0.64,0.79-0.97,1.17
				c-1.13,1.3-2.37,2.52-3.7,3.62c-0.16,0.14-0.33,0.26-0.49,0.4c-0.46,0.41,0.67-0.47,0.16-0.12c-0.54,0.37-1.05,0.77-1.6,1.13
				c-1.29,0.87-2.65,1.65-4.05,2.33c-1.2,0.59-1.39,0.67-2.68,1.13c-1.06,0.38-2.15,0.71-3.24,0.99c-0.75,0.19-1.5,0.36-2.26,0.5
				c-0.27,0.05-0.54,0.1-0.82,0.14c-0.28,0.05-1.54,0.19-0.45,0.08c-1.86,0.19-3.71,0.3-5.58,0.22c-0.84-0.04-1.68-0.14-2.52-0.21
				c-0.65-0.06,0.84,0.15,0.2,0.02c-0.22-0.04-0.44-0.07-0.66-0.11c-0.49-0.08-0.98-0.18-1.46-0.29c-1.72-0.37-3.42-0.88-5.07-1.49
				c-0.42-0.15-0.83-0.31-1.24-0.48c-0.21-0.08-0.41-0.17-0.62-0.25c0.02,0.01,0.77,0.35,0.31,0.13c-0.85-0.42-1.73-0.79-2.58-1.22
				c-1.62-0.82-3.21-1.71-4.76-2.66c-6.52-3.97-12.49-8.75-18.71-13.17c-6.62-4.7-13.58-8.95-21.3-11.61
				c-8.06-2.78-16.67-3.32-25.04-1.82c-5.41,0.97-10.64,2.94-15.54,5.42c-4.69,2.38-8.71,5.33-12.81,8.59
				c-0.16,0.13-0.33,0.26-0.49,0.39c-0.57,0.45,0.48-0.36-0.12,0.09c-0.5,0.38-1,0.75-1.51,1.12c-0.79,0.57-1.6,1.11-2.42,1.64
				c-1.03,0.67-2.07,1.32-3.13,1.94c-1.6,0.94-3.22,1.82-4.88,2.65c-0.92,0.46-1.85,0.89-2.79,1.31c-0.1,0.04-0.91,0.4-0.45,0.2
				c0.46-0.2-0.38,0.16-0.48,0.2c-0.63,0.26-1.26,0.5-1.9,0.74c-2.39,0.89-4.85,1.63-7.34,2.18c-2.75,0.61-4.41,0.83-7.28,0.88
				c-1.38,0.02-2.74-0.06-4.11-0.17c0.01,0-0.78-0.08-0.36-0.03c0.47,0.06-0.49-0.07-0.58-0.09c-0.69-0.11-1.38-0.24-2.07-0.4
				c-1.18-0.26-2.35-0.59-3.5-0.97c-0.49-0.16-0.97-0.34-1.46-0.52c-0.27-0.1-0.54-0.21-0.81-0.32c-0.45-0.18,0.42,0.2-0.31-0.14
				c-1.99-0.93-3.92-1.97-5.76-3.18c-0.86-0.56-1.69-1.16-2.52-1.78c0.76,0.57-0.35-0.28-0.54-0.44c-0.37-0.3-0.73-0.61-1.09-0.92
				c-2.34-2.02-4.5-4.26-6.49-6.63c-2.6-3.1-4.83-6.45-6.72-10.09c-0.55-1.06-1.07-2.14-1.56-3.24c-0.12-0.28-0.25-0.56-0.37-0.84
				c0.08,0.18,0.27,0.67-0.06-0.16c-0.23-0.59-0.47-1.18-0.69-1.78c-0.66-1.8-1.25-3.63-1.75-5.49c-0.33-1.22-0.62-2.45-0.86-3.69
				c-0.06-0.31-0.12-0.62-0.17-0.93c-0.09-0.53-0.17-1.06-0.25-1.6c-0.13-0.89-0.03-0.23-0.01-0.04c-0.04-0.35-0.09-0.71-0.13-1.06
				c-0.58-4.96-0.86-9.95-1.39-14.92c-0.97-9.12-2.37-19.53-8.58-26.75c-2.09-2.44-4.6-4.53-6.99-6.67
				c-4.26-3.82-8.52-7.63-12.71-11.51c-4.83-4.47-9.62-8.99-13.84-14.06c-0.37-0.44,0.74,1.01,0.18,0.22
				c-0.13-0.18-0.26-0.35-0.38-0.52c-0.23-0.33-0.46-0.66-0.67-0.99c-0.38-0.59-0.74-1.2-1.06-1.83c-0.31-0.61-0.6-1.23-0.87-1.86
				c-0.21-0.48-0.4-0.99-0.07-0.15c-0.16-0.39-0.32-0.78-0.47-1.18c-0.38-0.99-0.73-2-1.04-3.02c-1.43-4.74-1.86-9.29-0.55-14.24
				c0.28-1.06,0.63-2.11,1.04-3.13c-0.27,0.68,0,0.01,0.05-0.11c0.12-0.26,0.24-0.52,0.37-0.77c0.28-0.57,0.58-1.13,0.9-1.67
				c0.52-0.9,1.09-1.78,1.7-2.62c0.16-0.22,0.32-0.45,0.49-0.66c-0.47,0.61-0.03,0.05,0.06-0.06c0.4-0.46,0.79-0.94,1.2-1.39
				c1.44-1.59,3.02-3.05,4.67-4.41c0.2-0.17,0.41-0.33,0.61-0.5c0.1-0.08,0.75-0.58,0.32-0.25c-0.34,0.26,0.62-0.46,0.78-0.58
				c0.86-0.63,1.74-1.24,2.63-1.83c3.72-2.46,7.6-4.8,11.62-6.71c4-1.9,8.7-3.43,13.32-4.45c2.06-0.45,3.12-2.42,3.3-4.34
				c0.16-1.72,0.35-3.43,0.56-5.14c0.02-0.19,0.15-1.16,0.04-0.36c0.06-0.44,0.12-0.89,0.19-1.33c0.13-0.88,0.27-1.76,0.41-2.64
				c0.56-3.41,1.25-6.81,2.05-10.17c1.54-6.46,3.53-12.82,5.94-19.02c0.28-0.73,0.58-1.46,0.87-2.19c0.16-0.4,0.32-0.79,0.49-1.18
				c-0.36,0.85,0.19-0.44,0.22-0.49c0.68-1.56,1.38-3.11,2.11-4.64c1.39-2.92,2.88-5.79,4.47-8.6c3.14-5.56,6.66-10.89,10.53-15.96
				c-0.11,0.15-0.49,0.62,0.05-0.07c0.25-0.32,0.51-0.65,0.76-0.97c0.51-0.64,1.03-1.28,1.55-1.92c1.04-1.26,2.11-2.51,3.2-3.74
				c2.08-2.34,4.24-4.6,6.48-6.78c2.23-2.17,4.53-4.26,6.91-6.26c1.13-0.95,2.29-1.88,3.45-2.8c1.02-0.8-0.42,0.31,0.21-0.16
				c0.27-0.2,0.53-0.41,0.8-0.61c0.75-0.56,1.51-1.12,2.27-1.67c5.01-3.58,10.28-6.79,15.77-9.57c1.31-0.66,2.64-1.3,3.97-1.92
				c0.61-0.28,1.22-0.55,1.83-0.82c0.37-0.16,0.74-0.32,1.1-0.48c-0.91,0.39,0.62-0.25,0.78-0.32c2.85-1.16,5.76-2.21,8.7-3.14
				c5.94-1.88,12.01-3.21,18.17-4.14c1.34-0.2-0.92,0.11,0.43-0.06c0.27-0.03,0.54-0.07,0.81-0.1c0.82-0.1,1.63-0.19,2.45-0.27
				c1.65-0.16,3.3-0.29,4.95-0.38c3.18-0.17,6.37-0.21,9.55-0.12c3.13,0.09,6.25,0.31,9.35,0.65c0.67,0.07,1.34,0.16,2.01,0.24
				c-1.06-0.13,0.27,0.04,0.4,0.06c0.4,0.06,0.8,0.12,1.2,0.18c1.59,0.25,3.17,0.53,4.74,0.84c5.98,1.19,11.87,2.87,17.58,5
				c1.36,0.51,2.71,1.04,4.05,1.6c-0.94-0.39,0.27,0.12,0.38,0.16c0.36,0.16,0.72,0.32,1.09,0.48c0.72,0.32,1.44,0.65,2.16,0.98
				c2.74,1.29,5.43,2.68,8.07,4.17c2.64,1.49,5.22,3.09,7.74,4.77c1.21,0.81,2.4,1.64,3.58,2.49c0.64,0.46,1.28,0.94,1.92,1.41
				c0.21,0.16,0.42,0.32,0.63,0.48c0.41,0.31,0.42,0.32,0.03,0.02c0.21,0.16,0.42,0.33,0.63,0.49c4.81,3.79,9.35,7.93,13.57,12.37
				c2.13,2.24,4.18,4.56,6.15,6.94c0.52,0.62,1.03,1.25,1.53,1.89c0.21,0.26,0.42,0.53,0.63,0.8c0.13,0.16,0.67,0.87,0.17,0.21
				c0.99,1.29,1.96,2.6,2.9,3.93c3.66,5.14,6.95,10.54,9.87,16.13c1.48,2.84,2.86,5.72,4.15,8.65c0.17,0.38,0.33,0.77,0.5,1.16
				c0.55,1.27-0.32-0.81,0.2,0.47c0.26,0.65,0.53,1.3,0.79,1.95c0.62,1.57,1.22,3.16,1.79,4.75c2.21,6.2,3.99,12.55,5.35,18.98
				c0.69,3.28,1.26,6.59,1.73,9.91c0.21,1.44-0.1-0.89,0.07,0.55c0.05,0.44,0.11,0.88,0.16,1.32c0.09,0.73,0.17,1.47,0.25,2.2
				c0.18,1.77,0.34,3.55,0.46,5.33c0.24,3.45,0.35,6.91,0.35,10.37c0,2.43,2.07,4.5,4.5,4.5
				C305.31,169.82,307.38,167.76,307.37,165.32z"/>
		</g>
	</g>
	<g>
		<path class="st0" d="M293.19,161.74c9.99-4.02,19.98-8.05,29.96-12.07c7.17-2.89,15.44-5.74,22.29-2.14
			c8,4.22,9.83,15.09,8.94,24.22c-1.76,18.02-10.23,34.81-21.26,49.01c-11.03,14.21-24.59,26.13-38.06,37.96"/>
		<g>
			<path class="st1" d="M294.39,166.08c6.61-2.66,13.21-5.32,19.82-7.99c6.07-2.44,12.14-5.33,18.49-6.97
				c0.76-0.2,1.52-0.37,2.29-0.51c0.28-0.05,0.56-0.1,0.83-0.14c-1,0.17,0.35-0.03,0.47-0.04c0.69-0.06,1.37-0.09,2.06-0.09
				c0.34,0,0.68,0.02,1.02,0.04c0.2,0.01,0.41,0.03,0.61,0.05c-0.52-0.08-0.52-0.08,0.01,0c0.67,0.13,1.32,0.28,1.97,0.48
				c-0.05-0.02,1.2,0.44,0.62,0.2c-0.59-0.24,0.65,0.33,0.6,0.3c0.48,0.26,0.93,0.56,1.4,0.84c0.92,0.56-0.69-0.64,0.11,0.07
				c0.24,0.21,0.48,0.41,0.71,0.63c0.38,0.37,0.72,0.76,1.08,1.15c0.73,0.79-0.52-0.8,0.08,0.09c0.12,0.18,0.24,0.35,0.36,0.53
				c0.32,0.49,0.62,1,0.9,1.52c0.13,0.24,0.25,0.48,0.36,0.73c0.09,0.2,0.18,0.4,0.27,0.6c-0.22-0.52-0.26-0.63-0.14-0.31
				c0.31,1.13,0.77,2.21,1.05,3.36c0.13,0.55,0.25,1.11,0.35,1.67c0.04,0.23,0.07,0.45,0.11,0.68c0.08,0.51,0.07,0.45-0.02-0.17
				c0.03,0.23,0.06,0.46,0.08,0.69c0.25,2.4,0.27,4.83,0.09,7.24c-0.05,0.62-0.11,1.24-0.17,1.86c-0.05,0.42-0.1,0.85-0.15,1.27
				c0.02-0.19,0.12-0.83-0.01,0.07c-0.23,1.54-0.5,3.08-0.81,4.61c-0.64,3.05-1.46,6.06-2.44,9.02c-0.45,1.35-0.92,2.68-1.43,4
				c-0.26,0.66-0.52,1.32-0.79,1.98c-0.51,1.26,0.21-0.45-0.13,0.3c-0.2,0.45-0.4,0.91-0.6,1.37c-2.48,5.52-5.47,10.81-8.83,15.84
				c-0.83,1.24-1.68,2.47-2.56,3.68c-0.42,0.58-0.84,1.15-1.26,1.72c-0.17,0.23-0.34,0.45-0.51,0.68c-0.17,0.23-0.34,0.45-0.52,0.68
				c0.28-0.36,0.25-0.32-0.1,0.12c-1.97,2.51-4.02,4.97-6.14,7.36c-9.68,10.94-20.68,20.61-31.64,30.24c-1.77,1.56-1.71,4.79,0,6.36
				c1.89,1.74,4.47,1.66,6.36,0c20.04-17.61,40.69-36.02,52.24-60.59c2.76-5.87,5.05-11.98,6.54-18.29
				c1.39-5.88,2.37-12.08,1.96-18.14c-0.36-5.38-1.62-11.04-4.86-15.47c-4.01-5.46-10.22-8.4-17.01-8.04
				c-7.77,0.41-14.97,3.88-22.07,6.75c-7.68,3.1-15.37,6.19-23.05,9.29c-2.18,0.88-3.95,3.04-3.14,5.54
				C289.54,165.04,292.05,167.02,294.39,166.08L294.39,166.08z"/>
		</g>
	</g>
	<ellipse class="st0" cx="288.17" cy="228.01" rx="15.08" ry="26.76"/>
</g>
<g>
	<g>
		<path class="st2" d="M95,162.58c-0.15-0.53-0.26-1.07-0.37-1.61c-0.1-0.48-0.18-0.97-0.26-1.45c-0.05-0.29-0.08-0.58-0.13-0.87
			c0.38,2.46,0.11,0.83,0.05,0.22c-0.18-1.71-0.27-3.42-0.26-5.14c0.01-0.97,0.04-1.94,0.12-2.91c0.04-0.49,0.08-0.97,0.13-1.45
			c0.02-0.22,0.16-1.24,0-0.09c-0.17,1.22,0.03-0.17,0.07-0.41c0.36-2.22,0.92-4.42,1.69-6.53c0.12-0.32,0.24-0.63,0.36-0.95
			c0.43-1.13-0.49,1.08-0.14,0.33c0.27-0.58,0.53-1.16,0.82-1.73c0.61-1.17,1.28-2.31,2.03-3.4c0.14-0.2,0.29-0.4,0.43-0.61
			c0.75-1.1-0.88,1.06-0.02,0.02c0.41-0.5,0.82-0.99,1.25-1.47c0.4-0.44,0.81-0.86,1.23-1.28c0.79-0.77,1.64-1.47,2.49-2.17
			c0.36-0.3,0.97-0.63-0.63,0.49c0.18-0.13,0.36-0.27,0.54-0.4c0.32-0.23,0.64-0.46,0.97-0.69c0.79-0.55,1.61-1.06,2.44-1.55
			c0.84-0.49,1.69-0.94,2.57-1.36c0.28-0.13,0.55-0.25,0.83-0.38c0.86-0.4-0.53,0.22-0.58,0.24c0.61-0.19,1.19-0.47,1.79-0.68
			c1.1-0.38,2.23-0.69,3.37-0.94c0.61-0.13,1.28-0.17,1.88-0.34c-0.09,0.03-1.55,0.16-0.54,0.08c0.48-0.04,0.96-0.09,1.44-0.11
			c1.25-0.06,2.5-0.04,3.74,0.07c0.15,0.01,1.43,0.08,0.36,0.03c-1.05-0.05,0.21,0.05,0.38,0.08c0.77,0.14,1.53,0.31,2.28,0.52
			c0.6,0.16,1.19,0.35,1.77,0.55c0.34,0.12,0.68,0.25,1.02,0.38c0.95,0.35-0.38-0.13-0.45-0.19c0.43,0.37,1.21,0.57,1.71,0.84
			c0.59,0.32,1.17,0.65,1.74,1.01c0.5,0.32,1,0.65,1.48,1c0.17,0.12,0.34,0.27,0.51,0.38c-1.47-0.91-0.61-0.47-0.23-0.17
			c0.84,0.69,1.65,1.42,2.41,2.2c0.64,0.64,1.25,1.32,1.84,2.01c0.27,0.32,0.51,0.68,0.8,0.98c-1.47-1.54-0.31-0.4,0.05,0.09
			c0.76,1.06,1.47,2.16,2.12,3.29c0.53,0.92,1.04,1.86,1.49,2.82c0.11,0.22,0.37,0.64,0.39,0.86c-0.3-0.72-0.32-0.77-0.07-0.15
			c0.11,0.28,0.22,0.57,0.32,0.85c0.3,0.83,0.57,1.68,0.81,2.53c0.23,0.82,0.43,1.65,0.59,2.48c0.05,0.27,0.11,0.54,0.15,0.81
			c0.05,0.27,0.09,0.53,0.13,0.8c0.1,0.67,0.08,0.53-0.05-0.41c-0.21,0.28,0.18,1.91,0.21,2.3c0.04,0.73,0.07,1.46,0.07,2.2
			c0,1.28-0.06,2.56-0.17,3.84c-0.02,0.25-0.05,0.51-0.08,0.76c-0.16,1.43,0.12-0.72,0.05-0.3c-0.09,0.52-0.16,1.04-0.26,1.56
			c-0.25,1.38-0.58,2.74-0.99,4.08c-0.92,3,1.09,6.68,4.19,7.38c3.25,0.74,6.4-0.98,7.38-4.19c3.2-10.45,2.29-22.08-2.52-31.88
			c-3.81-7.76-10.21-14.86-18.19-18.38c-6.43-2.84-13.2-3.65-20.12-2.38c-4.9,0.9-9.71,3.05-13.83,5.83
			c-7.79,5.25-13.5,12.76-16.01,21.91c-1.38,5.03-1.85,10.42-1.46,15.63c0.21,2.77,0.52,5.63,1.26,8.32
			c0.83,3.02,4.3,5.19,7.38,4.19C93.9,168.96,95.89,165.82,95,162.58L95,162.58z"/>
	</g>
</g>
<g>
	<g>
		<path class="st2" d="M153.62,199.98c1.27,8.45,8.04,15.59,16.12,18.04c8.39,2.55,17.51-0.77,22.93-7.52
			c3.13-3.9,5.03-8.53,5.2-13.55c0.14-3.86-5.86-3.86-6,0c-0.11,3.14-1.23,6.17-3.18,8.93c-1.76,2.49-4.35,4.59-7.3,5.87
			c-5.69,2.47-12.47,0.76-17.05-3.72c-2.7-2.64-4.37-5.84-4.95-9.65c-0.24-1.6-2.26-2.49-3.69-2.1
			C154,196.76,153.38,198.37,153.62,199.98L153.62,199.98z"/>
	</g>
</g>
<g>
	<g>
		<path class="st2" d="M212.87,164.27c-0.15-0.53-0.26-1.07-0.37-1.61c-0.1-0.48-0.18-0.97-0.26-1.45
			c-0.05-0.29-0.08-0.58-0.13-0.87c0.38,2.46,0.11,0.83,0.05,0.22c-0.18-1.71-0.27-3.42-0.26-5.14c0.01-0.97,0.04-1.94,0.12-2.91
			c0.04-0.49,0.08-0.97,0.13-1.45c0.02-0.22,0.16-1.24,0-0.09c-0.17,1.22,0.03-0.17,0.07-0.41c0.36-2.22,0.92-4.42,1.69-6.53
			c0.12-0.32,0.24-0.63,0.36-0.95c0.43-1.13-0.49,1.08-0.14,0.33c0.27-0.58,0.53-1.16,0.82-1.73c0.61-1.17,1.28-2.31,2.03-3.4
			c0.14-0.2,0.29-0.4,0.43-0.61c0.75-1.1-0.88,1.06-0.02,0.02c0.41-0.5,0.82-0.99,1.25-1.47c0.4-0.44,0.81-0.86,1.23-1.28
			c0.79-0.77,1.64-1.47,2.49-2.17c0.36-0.3,0.97-0.63-0.63,0.49c0.18-0.13,0.36-0.27,0.54-0.4c0.32-0.23,0.64-0.46,0.97-0.69
			c0.79-0.55,1.61-1.06,2.44-1.55c0.84-0.49,1.69-0.94,2.57-1.36c0.28-0.13,0.55-0.25,0.83-0.38c0.86-0.4-0.53,0.22-0.58,0.24
			c0.61-0.19,1.19-0.47,1.79-0.68c1.1-0.38,2.23-0.69,3.37-0.94c0.61-0.13,1.28-0.17,1.88-0.34c-0.09,0.03-1.55,0.16-0.54,0.08
			c0.48-0.04,0.96-0.09,1.44-0.11c1.25-0.06,2.5-0.04,3.74,0.07c0.15,0.01,1.43,0.08,0.36,0.03c-1.05-0.05,0.21,0.05,0.38,0.08
			c0.77,0.14,1.53,0.31,2.28,0.52c0.6,0.16,1.19,0.35,1.77,0.55c0.34,0.12,0.68,0.25,1.02,0.38c0.95,0.35-0.38-0.13-0.45-0.19
			c0.43,0.37,1.21,0.57,1.71,0.84c0.59,0.32,1.17,0.65,1.74,1.01c0.5,0.32,1,0.65,1.48,1c0.17,0.12,0.34,0.27,0.51,0.38
			c-1.47-0.91-0.61-0.47-0.23-0.17c0.84,0.69,1.65,1.42,2.41,2.2c0.64,0.64,1.25,1.32,1.84,2.01c0.27,0.32,0.51,0.68,0.8,0.98
			c-1.47-1.54-0.31-0.4,0.05,0.09c0.76,1.06,1.47,2.16,2.12,3.29c0.53,0.92,1.04,1.86,1.49,2.82c0.11,0.22,0.37,0.64,0.39,0.86
			c-0.3-0.72-0.32-0.77-0.07-0.15c0.11,0.28,0.22,0.57,0.32,0.85c0.3,0.83,0.57,1.68,0.81,2.53c0.23,0.82,0.43,1.65,0.59,2.48
			c0.05,0.27,0.11,0.54,0.15,0.81c0.05,0.27,0.09,0.53,0.13,0.8c0.1,0.67,0.08,0.53-0.05-0.41c-0.21,0.28,0.18,1.91,0.21,2.3
			c0.04,0.73,0.07,1.46,0.07,2.2c0,1.28-0.06,2.56-0.17,3.84c-0.02,0.25-0.05,0.51-0.08,0.76c-0.16,1.43,0.12-0.72,0.05-0.3
			c-0.09,0.52-0.16,1.04-0.26,1.56c-0.25,1.38-0.58,2.74-0.99,4.08c-0.92,3,1.09,6.68,4.19,7.38c3.25,0.74,6.4-0.98,7.38-4.19
			c3.2-10.45,2.29-22.08-2.52-31.88c-3.81-7.76-10.21-14.86-18.19-18.38c-6.43-2.84-13.2-3.65-20.12-2.38
			c-4.9,0.9-9.71,3.05-13.83,5.83c-7.79,5.25-13.5,12.76-16.01,21.91c-1.38,5.03-1.85,10.42-1.46,15.63
			c0.21,2.77,0.52,5.63,1.26,8.32c0.83,3.02,4.3,5.19,7.38,4.19C211.78,170.65,213.77,167.51,212.87,164.27L212.87,164.27z"/>
	</g>
</g>
<ellipse class="st3" cx="177.42" cy="250.88" rx="17.21" ry="20.92"/>
<g>
	<g>
		<g>
			<path class="st3" d="M197.46,241.45c3.12,6.1,3.23,13.58,0.25,19.76c-0.84,1.73,1.75,3.25,2.59,1.51
				c3.47-7.19,3.39-15.68-0.25-22.79C199.17,238.22,196.58,239.74,197.46,241.45L197.46,241.45z"/>
		</g>
	</g>
	<g>
		<g>
			<g>
				<path class="st3" d="M198.59,263.56c5.75,4.24,11.5,8.48,17.24,12.72c0.65,0.48,1.67,0.11,2.05-0.54
					c0.45-0.76,0.12-1.57-0.54-2.05c-5.75-4.24-11.5-8.48-17.24-12.72c-0.65-0.48-1.67-0.11-2.05,0.54
					C197.61,262.27,197.94,263.08,198.59,263.56L198.59,263.56z"/>
			</g>
		</g>
		<g>
			<g>
				<path class="st3" d="M218.07,276.81c1.93,0,1.93-3,0-3C216.13,273.81,216.13,276.81,218.07,276.81L218.07,276.81z"/>
			</g>
		</g>
		<g>
			<g>
				<g>
					<path class="st3" d="M199.57,242.03c4.09-3.14,8.17-6.28,12.26-9.42c1.57-1.2,3.42-3.06,5.58-2.6
						c2.26,0.49,3.63,2.65,4.44,4.64c3.17,7.84,3.33,17.07,1.31,25.2c-1.17,4.71-3.11,9.16-5.78,13.21
						c-1.06,1.62,1.53,3.12,2.59,1.51c5.26-8.02,7.85-17.71,7.43-27.29c-0.21-4.79-1.07-9.76-2.98-14.19
						c-1.89-4.38-6.42-7.85-11.15-5.21c-2.65,1.48-5.03,3.71-7.43,5.56c-2.59,1.99-5.19,3.99-7.78,5.98
						c-0.65,0.5-0.97,1.28-0.54,2.05C197.88,242.13,198.93,242.52,199.57,242.03L199.57,242.03z"/>
				</g>
			</g>
			<g>
				<g>
					<path class="st3" d="M211.24,251.63c1.6,0.68,3.08,1.24,4.87,1.2c1.81-0.05,3.57-0.52,5.16-1.39c2.86-1.57,4.76-4.41,5.19-7.61
						c0.44-3.28-0.77-6.6-3.12-8.93c-2.69-2.67-6.39-3.4-10.02-2.63c-2.52,0.54-5.07,1.62-7.47,2.57c-1.69,0.66-3.12,1.35-4.44,2.62
						c-1.64,1.59-2.39,3.79-2.54,6.02c-0.1,1.47,0.23,2.95,0.44,4.4c0.2,1.37,0.4,2.74,0.61,4.11c0.38,2.58,0.62,5.24,1.23,7.78
						c1.52,6.34,6.44,10.17,11.82,13.25c3.18,1.82,8.01,0.28,8.81-3.59c1.59-7.68,3.19-15.35,4.78-23.03
						c0.64-3.06-0.89-6.63-4.19-7.38c-3-0.68-6.7,0.9-7.38,4.19c-1.59,7.68-3.19,15.35-4.78,23.03c2.94-1.2,5.88-2.39,8.81-3.59
						c-0.9-0.52-1.8-1.03-2.67-1.6c-0.44-0.28-0.86-0.58-1.29-0.88c-0.52-0.38-0.42-0.31,0.29,0.23c-0.2-0.16-0.39-0.33-0.58-0.5
						c-0.38-0.34-0.72-0.72-1.08-1.07c-0.41-0.49-0.34-0.38,0.22,0.33c-0.15-0.2-0.29-0.41-0.43-0.63c-0.1-0.16-0.62-0.88-0.55-1.01
						c0.32,0.79,0.36,0.87,0.13,0.25c-0.09-0.27-0.17-0.54-0.24-0.81c-0.63-2.35-0.84-4.82-1.19-7.22c-0.17-1.13-0.33-2.26-0.5-3.39
						c-0.09-0.65-0.19-1.29-0.28-1.94c-0.11-0.76-0.1-0.65,0.04,0.36c-0.03-0.25-0.04-0.51-0.05-0.76c0.03-0.67,0-0.5-0.09,0.49
						c-0.16,0.54-0.45,1.02-0.85,1.42c-0.79,0.55-0.92,0.66-0.39,0.31c0.56-0.29,0.41-0.24-0.47,0.15c0.97-0.17,2.03-0.74,2.96-1.07
						c1.2-0.43,2.39-0.91,3.61-1.27c0.3-0.09,0.59-0.17,0.9-0.23c-0.84,0.09-0.92,0.11-0.23,0.08c-0.92-0.17-1.1-0.18-0.52-0.05
						c-0.93-0.44-1.12-0.51-0.57-0.23c0.52,0.34,0.37,0.21-0.45-0.38c0.16,0.14,0.31,0.3,0.44,0.46c-0.56-0.76-0.72-0.95-0.47-0.56
						c0.09,0.14,0.16,0.28,0.23,0.42c-0.37-0.95-0.46-1.13-0.27-0.53c0.13,0.63,0.11,0.41-0.07-0.65c-0.01,0.64,0.03,0.43,0.14-0.65
						c-0.17,0.6-0.07,0.43,0.3-0.52c-0.09,0.19-0.2,0.37-0.32,0.55c0.64-0.78,0.74-0.94,0.32-0.5c0.82-0.59,0.97-0.71,0.46-0.36
						c-0.55,0.3-0.36,0.24,0.58-0.18c-0.2,0.08-0.4,0.14-0.61,0.19c1.08-0.11,1.29-0.14,0.66-0.09c-0.64-0.02-0.42,0.03,0.66,0.14
						c-0.6-0.17-0.42-0.06,0.53,0.31c-1.55-0.66-2.93-1.07-4.62-0.6c-1.39,0.38-2.9,1.46-3.59,2.76
						C207.73,245.99,208.16,250.32,211.24,251.63L211.24,251.63z"/>
				</g>
			</g>
			<g>
				<g>
					<path class="st3" d="M216.48,240.75c3.14,0,6.15-2.76,6-6c-0.15-3.25-2.64-6-6-6c-3.14,0-6.15,2.76-6,6
						C210.63,238,213.12,240.75,216.48,240.75L216.48,240.75z"/>
				</g>
			</g>
			<g>
				<g>
					<path class="st3" d="M212.52,256.85c3.14,0,6.15-2.76,6-6c-0.15-3.25-2.64-6-6-6c-3.14,0-6.15,2.76-6,6
						C206.66,254.1,209.16,256.85,212.52,256.85L212.52,256.85z"/>
				</g>
			</g>
		</g>
		<g>
			<g>
				<path class="st3" d="M205.82,265.91c3.14,0,6.15-2.76,6-6c-0.15-3.25-2.64-6-6-6c-3.14,0-6.15,2.76-6,6
					C199.97,263.16,202.46,265.91,205.82,265.91L205.82,265.91z"/>
			</g>
		</g>
	</g>
</g>
<g>
	<g>
		<g>
			<path class="st3" d="M155.37,239.46c-3.72,7.07-3.86,15.56-0.47,22.78c0.82,1.75,3.41,0.22,2.59-1.51
				c-2.92-6.2-2.71-13.69,0.47-19.75C158.86,239.27,156.27,237.75,155.37,239.46L155.37,239.46z"/>
		</g>
	</g>
	<g>
		<g>
			<g>
				<path class="st3" d="M155.09,260.48c-5.79,4.18-11.58,8.36-17.37,12.54c-0.66,0.47-0.98,1.31-0.54,2.05
					c0.38,0.65,1.39,1.01,2.05,0.54c5.79-4.18,11.58-8.36,17.37-12.54c0.66-0.47,0.98-1.31,0.54-2.05
					C156.76,260.37,155.75,260.01,155.09,260.48L155.09,260.48z"/>
			</g>
		</g>
		<g>
			<g>
				<path class="st3" d="M137,276.13c1.93,0,1.93-3,0-3C135.07,273.13,135.07,276.13,137,276.13L137,276.13z"/>
			</g>
		</g>
		<g>
			<g>
				<g>
					<path class="st3" d="M157.67,239.19c-4.53-3.56-9.04-7.15-13.6-10.68c-1.87-1.45-3.91-2.58-6.35-2.15
						c-2.42,0.42-4.38,2.09-5.67,4.11c-2.55,4-3.48,9.36-3.94,14.01c-0.48,4.81-0.17,9.69,0.84,14.41
						c1.13,5.31,3.23,10.42,6.16,14.99c1.04,1.62,3.64,0.12,2.59-1.51c-4.62-7.2-6.96-15.67-6.81-24.22
						c0.09-5.03,2.38-23.94,11.03-17.53c4.63,3.43,9.09,7.13,13.62,10.69C157.05,242.49,159.19,240.39,157.67,239.19L157.67,239.19z
						"/>
				</g>
			</g>
			<g>
				<g>
					<path class="st3" d="M139.5,240.02c-0.62,0.26-1.74,0.23,0.07,0.14c-0.64-0.02-0.42,0.03,0.65,0.15
						c-0.21-0.04-0.41-0.09-0.62-0.15c0.93,0.43,1.12,0.51,0.56,0.23c-0.52-0.33-0.38-0.19,0.43,0.4c-0.16-0.14-0.32-0.28-0.46-0.44
						c0.59,0.82,0.71,0.97,0.38,0.45c0.36,0.96,0.44,1.15,0.24,0.55c-0.14-0.63-0.11-0.41,0.07,0.65c0.02-0.64-0.02-0.43-0.13,0.65
						c0.04-0.21,0.1-0.41,0.17-0.62c-0.12,0.28-0.24,0.56-0.36,0.84c0.1-0.19,0.2-0.38,0.32-0.55c-0.63,0.77-0.75,0.93-0.33,0.47
						c0.46-0.42,0.3-0.31-0.48,0.33c0.18-0.12,0.36-0.22,0.55-0.31c-0.96,0.37-1.14,0.47-0.54,0.31c-0.98,0.11-1.1,0.15-0.37,0.15
						c-0.84-0.13-0.92-0.12-0.24,0.02c1.18,0.45,2.4,0.82,3.59,1.26c0.3,0.11,3.07,1.15,3.07,1.14c-0.88-0.39-1.03-0.45-0.45-0.18
						c0.21,0.11,0.41,0.23,0.6,0.36c-0.51-0.27-0.92-0.66-1.21-1.15c-0.28-0.43-0.43-0.91-0.44-1.43c0,0.29-0.01,0.57-0.05,0.85
						c0.12-0.91,0.13-1,0.02-0.26c-0.11,0.64-0.2,1.29-0.3,1.93c-0.18,1.13-0.36,2.26-0.53,3.38c-0.38,2.39-0.62,4.87-1.27,7.21
						c-0.07,0.27-0.16,0.54-0.25,0.81c-0.23,0.62-0.19,0.53,0.12-0.26c-0.14,0.1-0.47,0.84-0.56,1c-0.36,0.52-0.27,0.43,0.27-0.29
						c-0.16,0.2-0.32,0.39-0.49,0.57c-0.34,0.37-0.71,0.73-1.09,1.06c-0.19,0.17-0.39,0.33-0.59,0.49c0.71-0.54,0.8-0.62,0.29-0.24
						c-0.44,0.28-0.86,0.59-1.3,0.86c-0.88,0.55-1.78,1.06-2.69,1.57c2.94,1.2,5.88,2.39,8.81,3.59
						c-1.52-7.69-3.03-15.39-4.55-23.08c-0.61-3.09-4.46-5.14-7.38-4.19c-3.28,1.06-4.84,4.08-4.19,7.38
						c1.52,7.69,3.03,15.39,4.55,23.08c0.77,3.91,5.65,5.35,8.81,3.59c4.84-2.71,9.11-5.86,11.26-11.15
						c0.95-2.34,1.2-4.88,1.59-7.36c0.4-2.56,0.83-5.11,1.21-7.67c0.29-1.96,0.46-3.75-0.1-5.69c-0.63-2.19-2.25-3.99-4.16-5.15
						c-2.32-1.41-5.29-2.17-7.84-3.1c-3.27-1.19-6.8-1.39-9.92,0.37c-2.56,1.44-4.53,4.15-5.12,7.02c-0.74,3.59,0.35,7.5,3.26,9.86
						c2.8,2.27,6.83,3.58,10.34,2.12c1.51-0.62,2.73-1.29,3.59-2.76c0.75-1.29,1.07-3.18,0.6-4.62
						C145.98,241.43,142.6,238.73,139.5,240.02L139.5,240.02z"/>
				</g>
			</g>
			<g>
				<g>
					<path class="st3" d="M139,240.08c3.14,0,6.15-2.76,6-6c-0.15-3.25-2.64-6-6-6c-3.14,0-6.15,2.76-6,6
						C133.15,237.33,135.64,240.08,139,240.08L139,240.08z"/>
				</g>
			</g>
			<g>
				<g>
					<path class="st3" d="M142.8,256.23c3.14,0,6.15-2.76,6-6c-0.15-3.25-2.64-6-6-6c-3.14,0-6.15,2.76-6,6
						C136.94,253.48,139.43,256.23,142.8,256.23L142.8,256.23z"/>
				</g>
			</g>
		</g>
		<g>
			<g>
				<path class="st3" d="M149.4,265.35c3.14,0,6.15-2.76,6-6c-0.15-3.25-2.64-6-6-6c-3.14,0-6.15,2.76-6,6
					C143.55,262.6,146.04,265.35,149.4,265.35L149.4,265.35z"/>
			</g>
		</g>
	</g>
</g>
</svg>
